RedHatText-Italic.ufo
<glyph name="exclam" format="2">
  <advance width="215"/>
  <unicode hex="0021"/>
  <outline>
    <contour>
      <point x="67" y="205" type="line"/>
      <point x="124" y="205" type="line"/>
      <point x="246" y="727" type="line"/>
      <point x="172" y="727" type="line"/>
    </contour>
    <contour>
      <point x="58" y="-8" type="curve" smooth="yes"/>
      <point x="88" y="-8"/>
      <point x="115" y="20"/>
      <point x="115" y="51" type="curve" smooth="yes"/>
      <point x="115" y="77"/>
      <point x="96" y="98"/>
      <point x="69" y="98" type="curve" smooth="yes"/>
      <point x="38" y="98"/>
      <point x="11" y="71"/>
      <point x="11" y="40" type="curve" smooth="yes"/>
      <point x="11" y="13"/>
      <point x="31" y="-8"/>
    </contour>
  </outline>
</glyph>
<glyph name="numbersign" format="2">
  <advance width="675"/>
  <unicode hex="0023"/>
  <outline>
    <contour>
      <point x="-8" y="0" type="line"/>
      <point x="58" y="0" type="line"/>
      <point x="178" y="219" type="line"/>
      <point x="360" y="219" type="line"/>
      <point x="240" y="0" type="line"/>
      <point x="306" y="0" type="line"/>
      <point x="426" y="219" type="line"/>
      <point x="561" y="219" type="line"/>
      <point x="573" y="277" type="line"/>
      <point x="458" y="277" type="line"/>
      <point x="538" y="423" type="line"/>
      <point x="651" y="423" type="line"/>
      <point x="664" y="481" type="line"/>
      <point x="570" y="481" type="line"/>
      <point x="690" y="700" type="line"/>
      <point x="624" y="700" type="line"/>
      <point x="504" y="481" type="line"/>
      <point x="323" y="481" type="line"/>
      <point x="443" y="700" type="line"/>
      <point x="376" y="700" type="line"/>
      <point x="256" y="481" type="line"/>
      <point x="121" y="481" type="line"/>
      <point x="108" y="423" type="line"/>
      <point x="224" y="423" type="line"/>
      <point x="144" y="277" type="line"/>
      <point x="30" y="277" type="line"/>
      <point x="18" y="219" type="line"/>
      <point x="112" y="219" type="line"/>
    </contour>
    <contour>
      <point x="210" y="277" type="line"/>
      <point x="291" y="423" type="line"/>
      <point x="472" y="423" type="line"/>
      <point x="392" y="277" type="line"/>
    </contour>
  </outline>
</glyph>
<glyph name="quotesingle" format="2">
  <advance width="209"/>
  <unicode hex="0027"/>
  <outline>
    <contour>
      <point x="129" y="530" type="line"/>
      <point x="180" y="530" type="line"/>
      <point x="234" y="750" type="line"/>
      <point x="162" y="750" type="line"/>
    </contour>
  </outline>
</glyph>
<glyph name="parenright" format="2">
  <advance width="393"/>
  <unicode hex="0029"/>
  <outline>
    <contour>
      <point x="182" y="711" type="curve"/>
      <point x="134" y="665" type="line"/>
      <point x="218" y="596"/>
      <point x="262" y="488"/>
      <point x="262" y="352" type="curve" smooth="yes"/>
      <point x="262" y="132"/>
      <point x="140" y="-78"/>
      <point x="-35" y="-162" type="curve"/>
      <point x="-7" y="-216" type="line"/>
      <point x="200" y="-115"/>
      <point x="331" y="109"/>
      <point x="331" y="358" type="curve" smooth="yes"/>
      <point x="331" y="510"/>
      <point x="281" y="630"/>
    </contour>
  </outline>
</glyph>
<glyph name="asterisk" format="2">
  <advance width="446"/>
  <unicode hex="002A"/>
  <outline>
    <contour>
      <point x="216" y="341" type="line"/>
      <point x="267" y="341" type="line"/>
      <point x="295" y="478" type="line"/>
      <point x="388" y="398" type="line"/>
      <point x="425" y="440" type="line"/>
      <point x="325" y="520" type="line"/>
      <point x="455" y="584" type="line"/>
      <point x="434" y="631" type="line"/>
      <point x="314" y="569" type="line"/>
      <point x="342" y="700" type="line"/>
      <point x="292" y="700" type="line"/>
      <point x="266" y="568" type="line"/>
      <point x="173" y="648" type="line"/>
      <point x="138" y="607" type="line"/>
      <point x="235" y="528" type="line"/>
      <point x="104" y="463" type="line"/>
      <point x="124" y="414" type="line"/>
      <point x="248" y="480" type="line"/>
    </contour>
  </outline>
</glyph>
<glyph name="hyphen" format="2">
  <advance width="447"/>
  <unicode hex="002D"/>
  <outline>
    <contour>
      <point x="59" y="250" type="line"/>
      <point x="385" y="250" type="line"/>
      <point x="399" y="313" type="line"/>
      <point x="74" y="313" type="line"/>
    </contour>
  </outline>
</glyph>
<glyph name="period" format="2">
  <advance width="250"/>
  <unicode hex="002E"/>
  <outline>
    <contour>
      <point x="76" y="-8" type="curve" smooth="yes"/>
      <point x="106" y="-8"/>
      <point x="133" y="21"/>
      <point x="133" y="52" type="curve" smooth="yes"/>
      <point x="133" y="80"/>
      <point x="113" y="101"/>
      <point x="87" y="101" type="curve" smooth="yes"/>
      <point x="56" y="101"/>
      <point x="29" y="73"/>
      <point x="29" y="41" type="curve" smooth="yes"/>
      <point x="29" y="13"/>
      <point x="49" y="-8"/>
    </contour>
  </outline>
</glyph>
<glyph name="slash" format="2">
  <advance width="460"/>
  <unicode hex="002F"/>
  <outline>
    <contour>
      <point x="-145" y="-209" type="line"/>
      <point x="-70" y="-209" type="line"/>
      <point x="514" y="700" type="line"/>
      <point x="438" y="700" type="line"/>
    </contour>
  </outline>
</glyph>
<glyph name="question" format="2">
  <advance width="501"/>
  <unicode hex="003F"/>
  <outline>
    <contour>
      <point x="172" y="-8" type="curve" smooth="yes"/>
      <point x="202" y="-8"/>
      <point x="229" y="20"/>
      <point x="229" y="51" type="curve" smooth="yes"/>
      <point x="229" y="77"/>
      <point x="210" y="98"/>
      <point x="184" y="98" type="curve" smooth="yes"/>
      <point x="153" y="98"/>
      <point x="126" y="71"/>
      <point x="126" y="40" type="curve" smooth="yes"/>
      <point x="126" y="13"/>
      <point x="145" y="-8"/>
    </contour>
    <contour>
      <point x="177" y="207" type="curve"/>
      <point x="238" y="207" type="line"/>
      <point x="248" y="268"/>
      <point x="272" y="305"/>
      <point x="326" y="336" type="curve" smooth="yes"/>
      <point x="385" y="371" type="line" smooth="yes"/>
      <point x="473" y="424"/>
      <point x="511" y="480"/>
      <point x="511" y="554" type="curve" smooth="yes"/>
      <point x="511" y="645"/>
      <point x="436" y="707"/>
      <point x="327" y="707" type="curve" smooth="yes"/>
      <point x="249" y="707"/>
      <point x="171" y="670"/>
      <point x="107" y="603" type="curve"/>
      <point x="152" y="562" type="line"/>
      <point x="201" y="612"/>
      <point x="259" y="641"/>
      <point x="317" y="641" type="curve" smooth="yes"/>
      <point x="390" y="641"/>
      <point x="440" y="601"/>
      <point x="440" y="545" type="curve"/>
      <point x="440" y="499"/>
      <point x="409" y="454"/>
      <point x="355" y="421" type="curve" smooth="yes"/>
      <point x="293" y="385" type="line" smooth="yes"/>
      <point x="224" y="345"/>
      <point x="191" y="295"/>
    </contour>
  </outline>
</glyph>
<glyph name="A" format="2">
  <advance width="647"/>
  <unicode hex="0041"/>
  <anchor x="414" y="700" name="top"/>
  <anchor x="585" y="0" name="bottom"/>
  <outline>
    <contour>
      <point x="-44" y="0" type="line"/>
      <point x="41" y="0" type="line"/>
      <point x="168" y="220" type="line"/>
      <point x="472" y="220" type="line"/>
      <point x="508" y="0" type="line"/>
      <point x="585" y="0" type="line"/>
      <point x="463" y="700" type="line"/>
      <point x="372" y="700" type="line"/>
    </contour>
    <contour>
      <point x="203" y="281" type="line"/>
      <point x="404" y="631" type="line"/>
      <point x="462" y="281" type="line"/>
    </contour>
  </outline>
</glyph>
<glyph name="B" format="2">
  <advance width="656"/>
  <unicode hex="0042"/>
  <outline>
    <contour>
      <point x="34" y="0" type="line"/>
      <point x="341" y="0" type="line" smooth="yes"/>
      <point x="484" y="0"/>
      <point x="589" y="92"/>
      <point x="589" y="217" type="curve" smooth="yes"/>
      <point x="589" y="287"/>
      <point x="546" y="338"/>
      <point x="474" y="359" type="curve"/>
      <point x="566" y="383"/>
      <point x="627" y="454"/>
      <point x="627" y="545" type="curve" smooth="yes"/>
      <point x="627" y="641"/>
      <point x="556" y="700"/>
      <point x="442" y="700" type="curve" smooth="yes"/>
      <point x="183" y="700" type="line"/>
    </contour>
    <contour>
      <point x="193" y="394" type="line"/>
      <point x="244" y="634" type="line"/>
      <point x="429" y="634" type="line" smooth="yes"/>
      <point x="505" y="634"/>
      <point x="550" y="595"/>
      <point x="550" y="532" type="curve" smooth="yes"/>
      <point x="550" y="451"/>
      <point x="487" y="394"/>
      <point x="395" y="394" type="curve" smooth="yes"/>
    </contour>
    <contour>
      <point x="123" y="66" type="line"/>
      <point x="179" y="331" type="line"/>
      <point x="377" y="331" type="line" smooth="yes"/>
      <point x="462" y="331"/>
      <point x="513" y="288"/>
      <point x="513" y="218" type="curve" smooth="yes"/>
      <point x="513" y="128"/>
      <point x="442" y="66"/>
      <point x="340" y="66" type="curve" smooth="yes"/>
    </contour>
  </outline>
</glyph>
<glyph name="C" format="2">
  <advance width="713"/>
  <unicode hex="0043"/>
  <anchor x="448" y="700" name="top"/>
  <anchor x="388" y="0" name="bottom"/>
  <outline>
    <contour>
      <point x="401" y="-11" type="curve" smooth="yes"/>
      <point x="493" y="-11"/>
      <point x="585" y="27"/>
      <point x="659" y="95" type="curve"/>
      <point x="619" y="147" type="line"/>
      <point x="561" y="91"/>
      <point x="484" y="58"/>
      <point x="406" y="58" type="curve" smooth="yes"/>
      <point x="260" y="58"/>
      <point x="153" y="170"/>
      <point x="153" y="323" type="curve" smooth="yes"/>
      <point x="153" y="500"/>
      <point x="283" y="640"/>
      <point x="447" y="640" type="curve" smooth="yes"/>
      <point x="534" y="640"/>
      <point x="610" y="601"/>
      <point x="653" y="534" type="curve"/>
      <point x="710" y="584" type="line"/>
      <point x="652" y="667"/>
      <point x="562" y="710"/>
      <point x="451" y="710" type="curve" smooth="yes"/>
      <point x="246" y="710"/>
      <point x="76" y="534"/>
      <point x="76" y="320" type="curve" smooth="yes"/>
      <point x="76" y="131"/>
      <point x="216" y="-11"/>
    </contour>
  </outline>
</glyph>
<glyph name="H" format="2">
  <advance width="717"/>
  <unicode hex="0048"/>
  <anchor x="455" y="700" name="top"/>
  <outline>
    <contour>
      <point x="32" y="0" type="line"/>
      <point x="108" y="0" type="line"/>
      <point x="176" y="318" type="line"/>
      <point x="570" y="318" type="line"/>
      <point x="502" y="0" type="line"/>
      <point x="578" y="0" type="line"/>
      <point x="727" y="700" type="line"/>
      <point x="651" y="700" type="line"/>
      <point x="584" y="387" type="line"/>
      <point x="190" y="387" type="line"/>
      <point x="257" y="700" type="line"/>
      <point x="181" y="700" type="line"/>
    </contour>
  </outline>
</glyph>
<glyph name="I" format="2">
  <advance width="247"/>
  <unicode hex="0049"/>
  <anchor x="219" y="700" name="top"/>
  <anchor x="107" y="0" name="bottom"/>
  <outline>
    <contour>
      <point x="32" y="0" type="line"/>
      <point x="107" y="0" type="line"/>
      <point x="256" y="700" type="line"/>
      <point x="181" y="700" type="line"/>
    </contour>
  </outline>
</glyph>
<glyph name="M" format="2">
  <advance width="844"/>
  <unicode hex="004D"/>
  <outline>
    <contour>
      <point x="34" y="0" type="line"/>
      <point x="105" y="0" type="line"/>
      <point x="235" y="612" type="line"/>
      <point x="380" y="50" type="line"/>
      <point x="761" y="609" type="line"/>
      <point x="632" y="0" type="line"/>
      <point x="702" y="0" type="line"/>
      <point x="851" y="700" type="line"/>
      <point x="743" y="700" type="line"/>
      <point x="409" y="201" type="line"/>
      <point x="284" y="700" type="line"/>
      <point x="183" y="700" type="line"/>
    </contour>
  </outline>
</glyph>
<glyph name="N" format="2">
  <advance width="725"/>
  <unicode hex="004E"/>
  <anchor x="450" y="700" name="top"/>
  <anchor x="302" y="0" name="bottom"/>
  <outline>
    <contour>
      <point x="34" y="0" type="line"/>
      <point x="105" y="0" type="line"/>
      <point x="229" y="599" type="line"/>
      <point x="516" y="0" type="line"/>
      <point x="584" y="0" type="line"/>
      <point x="732" y="700" type="line"/>
      <point x="661" y="700" type="line"/>
      <point x="540" y="113" type="line"/>
      <point x="260" y="700" type="line"/>
      <point x="182" y="700" type="line"/>
    </contour>
  </outline>
</glyph>
<glyph name="P" format="2">
  <advance width="641"/>
  <unicode hex="0050"/>
  <outline>
    <contour>
      <point x="34" y="0" type="line"/>
      <point x="109" y="0" type="line"/>
      <point x="170" y="286" type="line"/>
      <point x="397" y="286" type="line" smooth="yes"/>
      <point x="539" y="286"/>
      <point x="642" y="384"/>
      <point x="642" y="520" type="curve" smooth="yes"/>
      <point x="642" y="631"/>
      <point x="566" y="700"/>
      <point x="445" y="700" type="curve" smooth="yes"/>
      <point x="183" y="700" type="line"/>
    </contour>
    <contour>
      <point x="184" y="352" type="line"/>
      <point x="244" y="632" type="line"/>
      <point x="432" y="632" type="line" smooth="yes"/>
      <point x="516" y="632"/>
      <point x="567" y="588"/>
      <point x="567" y="515" type="curve" smooth="yes"/>
      <point x="567" y="418"/>
      <point x="496" y="352"/>
      <point x="394" y="352" type="curve" smooth="yes"/>
    </contour>
  </outline>
</glyph>
<glyph name="Q" format="2">
  <advance width="795"/>
  <unicode hex="0051"/>
  <outline>
    <contour>
      <point x="599" y="-26" type="line"/>
      <point x="676" y="-21" type="line"/>
      <point x="618" y="74" type="line"/>
      <point x="703" y="146"/>
      <point x="759" y="257"/>
      <point x="759" y="380" type="curve" smooth="yes"/>
      <point x="759" y="568"/>
      <point x="623" y="711"/>
      <point x="442" y="711" type="curve" smooth="yes"/>
      <point x="242" y="711"/>
      <point x="75" y="533"/>
      <point x="75" y="320" type="curve" smooth="yes"/>
      <point x="75" y="132"/>
      <point x="212" y="-11"/>
      <point x="392" y="-11" type="curve" smooth="yes"/>
      <point x="453" y="-11"/>
      <point x="511" y="6"/>
      <point x="562" y="35" type="curve"/>
    </contour>
    <contour>
      <point x="397" y="59" type="curve" smooth="yes"/>
      <point x="256" y="59"/>
      <point x="151" y="173"/>
      <point x="151" y="324" type="curve" smooth="yes"/>
      <point x="151" y="497"/>
      <point x="280" y="641"/>
      <point x="438" y="641" type="curve" smooth="yes"/>
      <point x="578" y="641"/>
      <point x="683" y="528"/>
      <point x="683" y="376" type="curve" smooth="yes"/>
      <point x="683" y="279"/>
      <point x="643" y="192"/>
      <point x="581" y="134" type="curve"/>
      <point x="524" y="226" type="line"/>
      <point x="448" y="222" type="line"/>
      <point x="526" y="94" type="line"/>
      <point x="487" y="71"/>
      <point x="443" y="59"/>
    </contour>
  </outline>
</glyph>
<glyph name="R" format="2">
  <advance width="634"/>
  <unicode hex="0052"/>
  <anchor x="405" y="700" name="top"/>
  <anchor x="259" y="0" name="bottom"/>
  <outline>
    <contour>
      <point x="34" y="0" type="line"/>
      <point x="109" y="0" type="line"/>
      <point x="173" y="299" type="line"/>
      <point x="375" y="299" type="line"/>
      <point x="463" y="0" type="line"/>
      <point x="542" y="0" type="line"/>
      <point x="451" y="304" type="line"/>
      <point x="563" y="324"/>
      <point x="640" y="411"/>
      <point x="640" y="523" type="curve" smooth="yes"/>
      <point x="640" y="631"/>
      <point x="565" y="700"/>
      <point x="446" y="700" type="curve" smooth="yes"/>
      <point x="183" y="700" type="line"/>
    </contour>
    <contour>
      <point x="186" y="363" type="line"/>
      <point x="244" y="632" type="line"/>
      <point x="435" y="632" type="line" smooth="yes"/>
      <point x="515" y="632"/>
      <point x="565" y="588"/>
      <point x="565" y="518" type="curve" smooth="yes"/>
      <point x="565" y="427"/>
      <point x="495" y="363"/>
      <point x="397" y="363" type="curve" smooth="yes"/>
    </contour>
  </outline>
</glyph>
<glyph name="S" format="2">
  <advance width="612"/>
  <unicode hex="0053"/>
  <note>
Version created Fri Aug  3 17:49:29 2018
</note>
  <anchor x="356" y="700" name="top"/>
  <anchor x="291" y="0" name="bottom"/>
  <outline>
    <contour>
      <point x="306" y="-10" type="curve" smooth="yes"/>
      <point x="460" y="-10"/>
      <point x="566" y="79"/>
      <point x="566" y="209" type="curve" smooth="yes"/>
      <point x="566" y="295"/>
      <point x="511" y="347"/>
      <point x="385" y="382" type="curve" smooth="yes"/>
      <point x="280" y="408" type="line" smooth="yes"/>
      <point x="202" y="429"/>
      <point x="166" y="464"/>
      <point x="166" y="521" type="curve" smooth="yes"/>
      <point x="166" y="595"/>
      <point x="231" y="644"/>
      <point x="330" y="644" type="curve" smooth="yes"/>
      <point x="415" y="644"/>
      <point x="499" y="608"/>
      <point x="564" y="544" type="curve"/>
      <point x="612" y="599" type="line"/>
      <point x="539" y="670"/>
      <point x="439" y="709"/>
      <point x="333" y="709" type="curve" smooth="yes"/>
      <point x="188" y="709"/>
      <point x="92" y="630"/>
      <point x="92" y="511" type="curve" smooth="yes"/>
      <point x="92" y="427"/>
      <point x="145" y="369"/>
      <point x="249" y="342" type="curve" smooth="yes"/>
      <point x="356" y="315" type="line" smooth="yes"/>
      <point x="455" y="287"/>
      <point x="491" y="256"/>
      <point x="491" y="198" type="curve" smooth="yes"/>
      <point x="491" y="115"/>
      <point x="413" y="54"/>
      <point x="308" y="54" type="curve" smooth="yes"/>
      <point x="224" y="54"/>
      <point x="148" y="96"/>
      <point x="68" y="183" type="curve"/>
      <point x="17" y="131" type="line"/>
      <point x="97" y="38"/>
      <point x="196" y="-10"/>
    </contour>
  </outline>
</glyph>
<glyph name="U" format="2">
  <advance width="698"/>
  <unicode hex="0055"/>
  <anchor x="438" y="700" name="top"/>
  <anchor x="396" y="0" name="bottom"/>
  <outline>
    <contour>
      <point x="322" y="-11" type="curve" smooth="yes"/>
      <point x="480" y="-11"/>
      <point x="590" y="96"/>
      <point x="631" y="289" type="curve" smooth="yes"/>
      <point x="719" y="700" type="line"/>
      <point x="644" y="700" type="line"/>
      <point x="557" y="293" type="line" smooth="yes"/>
      <point x="525" y="146"/>
      <point x="439" y="59"/>
      <point x="325" y="59" type="curve" smooth="yes"/>
      <point x="198" y="59"/>
      <point x="129" y="158"/>
      <point x="159" y="299" type="curve" smooth="yes"/>
      <point x="245" y="700" type="line"/>
      <point x="169" y="700" type="line"/>
      <point x="85" y="303" type="line" smooth="yes"/>
      <point x="45" y="119"/>
      <point x="143" y="-11"/>
    </contour>
  </outline>
</glyph>
<glyph name="backslash" format="2">
  <advance width="413"/>
  <unicode hex="005C"/>
  <outline>
    <contour>
      <point x="315" y="-209" type="line"/>
      <point x="384" y="-209" type="line"/>
      <point x="184" y="700" type="line"/>
      <point x="115" y="700" type="line"/>
    </contour>
  </outline>
</glyph>
<glyph name="bracketright" format="2">
  <advance width="355"/>
  <unicode hex="005D"/>
  <outline>
    <contour>
      <point x="382" y="700" type="line"/>
      <point x="146" y="700" type="line"/>
      <point x="133" y="640" type="line"/>
      <point x="300" y="640" type="line"/>
      <point x="131" y="-155" type="line"/>
      <point x="-36" y="-155" type="line"/>
      <point x="-49" y="-215" type="line"/>
      <point x="187" y="-215" type="line"/>
    </contour>
  </outline>
</glyph>
<glyph name="underscore" format="2">
  <advance width="447"/>
  <unicode hex="005F"/>
  <outline>
    <contour>
      <point x="-84" y="-137" type="line"/>
      <point x="366" y="-137" type="line"/>
      <point x="378" y="-80" type="line"/>
      <point x="-72" y="-80" type="line"/>
    </contour>
  </outline>
</glyph>
<glyph name="grave" format="2">
  <advance width="600"/>
  <unicode hex="0060"/>
  <outline>
    <contour>
      <point x="344" y="584" type="line"/>
      <point x="411" y="584" type="line"/>
      <point x="302" y="706" type="line"/>
      <point x="202" y="706" type="line"/>
    </contour>
  </outline>
</glyph>
<glyph name="b" format="2">
  <advance width="571"/>
  <unicode hex="0062"/>
  <outline>
    <contour>
      <point x="267" y="-8" type="curve" smooth="yes"/>
      <point x="406" y="-8"/>
      <point x="520" y="118"/>
      <point x="520" y="271" type="curve" smooth="yes"/>
      <point x="520" y="398"/>
      <point x="437" y="492"/>
      <point x="325" y="492" type="curve" smooth="yes"/>
      <point x="270" y="492"/>
      <point x="222" y="471"/>
      <point x="183" y="433" type="curve"/>
      <point x="246" y="737" type="line"/>
      <point x="172" y="722" type="line"/>
      <point x="21" y="0" type="line"/>
      <point x="92" y="0" type="line"/>
      <point x="109" y="78" type="line"/>
      <point x="143" y="23"/>
      <point x="198" y="-8"/>
    </contour>
    <contour>
      <point x="258" y="56" type="curve" smooth="yes"/>
      <point x="200" y="56"/>
      <point x="146" y="88"/>
      <point x="121" y="136" type="curve"/>
      <point x="171" y="375" type="line"/>
      <point x="207" y="411"/>
      <point x="251" y="430"/>
      <point x="299" y="430" type="curve" smooth="yes"/>
      <point x="388" y="430"/>
      <point x="449" y="363"/>
      <point x="449" y="265" type="curve" smooth="yes"/>
      <point x="449" y="148"/>
      <point x="365" y="56"/>
    </contour>
  </outline>
</glyph>
<glyph name="e" format="2">
  <advance width="545"/>
  <unicode hex="0065"/>
  <anchor x="300" y="488" name="top"/>
  <anchor x="347" y="0" name="bottom"/>
  <outline>
    <contour>
      <point x="273" y="-9" type="curve" smooth="yes"/>
      <point x="333" y="-9"/>
      <point x="386" y="7"/>
      <point x="443" y="45" type="curve"/>
      <point x="405" y="97" type="line"/>
      <point x="371" y="70"/>
      <point x="323" y="54"/>
      <point x="276" y="54" type="curve" smooth="yes"/>
      <point x="184" y="54"/>
      <point x="116" y="132"/>
      <point x="121" y="228" type="curve"/>
      <point x="495" y="228" type="line"/>
      <point x="497" y="247"/>
      <point x="498" y="263"/>
      <point x="498" y="281" type="curve" smooth="yes"/>
      <point x="498" y="406"/>
      <point x="416" y="496"/>
      <point x="302" y="496" type="curve" smooth="yes"/>
      <point x="163" y="496"/>
      <point x="51" y="370"/>
      <point x="51" y="216" type="curve" smooth="yes"/>
      <point x="51" y="83"/>
      <point x="142" y="-9"/>
    </contour>
    <contour>
      <point x="128" y="280" type="line"/>
      <point x="150" y="369"/>
      <point x="216" y="432"/>
      <point x="297" y="432" type="curve" smooth="yes"/>
      <point x="374" y="432"/>
      <point x="432" y="365"/>
      <point x="430" y="280" type="curve"/>
    </contour>
  </outline>
</glyph>
<glyph name="g" format="2">
  <advance width="565"/>
  <unicode hex="0067"/>
  <note>
Version created Sun Jan 13 16:53:00 2019
</note>
  <anchor x="323" y="488" name="top"/>
  <outline>
    <contour>
      <point x="231" y="-219" type="curve" smooth="yes"/>
      <point x="337" y="-219"/>
      <point x="408" y="-160"/>
      <point x="431" y="-52" type="curve" smooth="yes"/>
      <point x="544" y="488" type="line"/>
      <point x="473" y="488" type="line"/>
      <point x="458" y="415" type="line"/>
      <point x="424" y="465"/>
      <point x="369" y="493"/>
      <point x="303" y="493" type="curve" smooth="yes"/>
      <point x="165" y="493"/>
      <point x="51" y="367"/>
      <point x="51" y="214" type="curve" smooth="yes"/>
      <point x="51" y="88"/>
      <point x="133" y="-6"/>
      <point x="246" y="-6" type="curve" smooth="yes"/>
      <point x="298" y="-6"/>
      <point x="344" y="13"/>
      <point x="382" y="48" type="curve"/>
      <point x="362" y="-46" type="line" smooth="yes"/>
      <point x="347" y="-116"/>
      <point x="299" y="-155"/>
      <point x="227" y="-155" type="curve" smooth="yes"/>
      <point x="172" y="-155"/>
      <point x="117" y="-135"/>
      <point x="60" y="-93" type="curve"/>
      <point x="22" y="-146" type="line"/>
      <point x="78" y="-190"/>
      <point x="160" y="-219"/>
    </contour>
    <contour>
      <point x="271" y="56" type="curve" smooth="yes"/>
      <point x="183" y="56"/>
      <point x="122" y="123"/>
      <point x="122" y="220" type="curve" smooth="yes"/>
      <point x="122" y="337"/>
      <point x="206" y="429"/>
      <point x="312" y="429" type="curve" smooth="yes"/>
      <point x="367" y="429"/>
      <point x="419" y="401"/>
      <point x="446" y="357" type="curve"/>
      <point x="394" y="105" type="line"/>
      <point x="359" y="73"/>
      <point x="316" y="56"/>
    </contour>
  </outline>
</glyph>
<glyph name="h" format="2">
  <advance width="542"/>
  <unicode hex="0068"/>
  <anchor x="202" y="700" name="top"/>
  <outline>
    <contour>
      <point x="21" y="0" type="line"/>
      <point x="93" y="0" type="line"/>
      <point x="168" y="361" type="line"/>
      <point x="203" y="408"/>
      <point x="253" y="435"/>
      <point x="306" y="435" type="curve" smooth="yes"/>
      <point x="387" y="435"/>
      <point x="428" y="375"/>
      <point x="408" y="285" type="curve" smooth="yes"/>
      <point x="346" y="0" type="line"/>
      <point x="418" y="0" type="line"/>
      <point x="482" y="300" type="line" smooth="yes"/>
      <point x="507" y="413"/>
      <point x="447" y="495"/>
      <point x="337" y="495" type="curve" smooth="yes"/>
      <point x="277" y="495"/>
      <point x="224" y="467"/>
      <point x="179" y="411" type="curve"/>
      <point x="246" y="737" type="line"/>
      <point x="171" y="722" type="line"/>
    </contour>
  </outline>
</glyph>
<glyph name="i" format="2">
  <advance width="220"/>
  <unicode hex="0069"/>
  <anchor x="163" y="488" name="top"/>
  <anchor x="93" y="0" name="bottom"/>
  <outline>
    <contour>
      <point x="189" y="608" type="curve" smooth="yes"/>
      <point x="220" y="608"/>
      <point x="246" y="635"/>
      <point x="246" y="666" type="curve" smooth="yes"/>
      <point x="246" y="692"/>
      <point x="226" y="713"/>
      <point x="200" y="713" type="curve" smooth="yes"/>
      <point x="170" y="713"/>
      <point x="143" y="685"/>
      <point x="143" y="655" type="curve" smooth="yes"/>
      <point x="143" y="628"/>
      <point x="162" y="608"/>
    </contour>
    <contour>
      <point x="21" y="0" type="line"/>
      <point x="93" y="0" type="line"/>
      <point x="199" y="488" type="line"/>
      <point x="128" y="488" type="line"/>
    </contour>
  </outline>
</glyph>
<glyph name="l" format="2">
  <advance width="220"/>
  <unicode hex="006C"/>
  <anchor x="203" y="700" name="top"/>
  <anchor x="57" y="0" name="bottom"/>
  <outline>
    <contour>
      <point x="21" y="0" type="line"/>
      <point x="93" y="0" type="line"/>
      <point x="246" y="737" type="line"/>
      <point x="172" y="722" type="line"/>
    </contour>
  </outline>
</glyph>
<glyph name="m" format="2">
  <advance width="828"/>
  <unicode hex="006D"/>
  <outline>
    <contour>
      <point x="21" y="0" type="line"/>
      <point x="93" y="0" type="line"/>
      <point x="172" y="363" type="line"/>
      <point x="210" y="411"/>
      <point x="253" y="435"/>
      <point x="301" y="435" type="curve" smooth="yes"/>
      <point x="372" y="435"/>
      <point x="409" y="376"/>
      <point x="390" y="291" type="curve" smooth="yes"/>
      <point x="327" y="0" type="line"/>
      <point x="399" y="0" type="line"/>
      <point x="465" y="306" type="line" smooth="yes"/>
      <point x="469" y="323"/>
      <point x="470" y="339"/>
      <point x="470" y="354" type="curve"/>
      <point x="514" y="410"/>
      <point x="558" y="435"/>
      <point x="606" y="435" type="curve" smooth="yes"/>
      <point x="676" y="435"/>
      <point x="714" y="378"/>
      <point x="696" y="298" type="curve" smooth="yes"/>
      <point x="632" y="0" type="line"/>
      <point x="703" y="0" type="line"/>
      <point x="769" y="306" type="line" smooth="yes"/>
      <point x="793" y="414"/>
      <point x="738" y="495"/>
      <point x="639" y="495" type="curve" smooth="yes"/>
      <point x="576" y="495"/>
      <point x="519" y="463"/>
      <point x="465" y="396" type="curve"/>
      <point x="449" y="456"/>
      <point x="401" y="495"/>
      <point x="332" y="495" type="curve" smooth="yes"/>
      <point x="277" y="495"/>
      <point x="228" y="468"/>
      <point x="183" y="413" type="curve"/>
      <point x="199" y="488" type="line"/>
      <point x="128" y="488" type="line"/>
    </contour>
  </outline>
</glyph>
<glyph name="q" format="2">
  <advance width="571"/>
  <unicode hex="0071"/>
  <outline>
    <contour>
      <point x="327" y="-209" type="line"/>
      <point x="399" y="-209" type="line"/>
      <point x="549" y="488" type="line"/>
      <point x="477" y="488" type="line"/>
      <point x="460" y="410" type="line"/>
      <point x="425" y="464"/>
      <point x="370" y="493"/>
      <point x="303" y="493" type="curve" smooth="yes"/>
      <point x="164" y="493"/>
      <point x="51" y="367"/>
      <point x="51" y="214" type="curve" smooth="yes"/>
      <point x="51" y="88"/>
      <point x="133" y="-7"/>
      <point x="245" y="-7" type="curve" smooth="yes"/>
      <point x="298" y="-7"/>
      <point x="344" y="12"/>
      <point x="382" y="47" type="curve"/>
    </contour>
    <contour>
      <point x="271" y="56" type="curve" smooth="yes"/>
      <point x="183" y="56"/>
      <point x="122" y="123"/>
      <point x="122" y="220" type="curve" smooth="yes"/>
      <point x="122" y="337"/>
      <point x="206" y="429"/>
      <point x="312" y="429" type="curve" smooth="yes"/>
      <point x="370" y="429"/>
      <point x="422" y="398"/>
      <point x="448" y="353" type="curve"/>
      <point x="395" y="106" type="line"/>
      <point x="360" y="73"/>
      <point x="317" y="56"/>
    </contour>
  </outline>
</glyph>
<glyph name="r" format="2">
  <advance width="344"/>
  <unicode hex="0072"/>
  <guideline x="55" y="0" angle="0.0" identifier="UENvCM4o4i"/>
  <anchor x="245" y="488" name="top"/>
  <anchor x="56" y="0" name="bottom"/>
  <outline>
    <contour>
      <point x="19" y="0" type="line"/>
      <point x="91" y="0" type="line"/>
      <point x="166" y="342" type="line"/>
      <point x="203" y="401"/>
      <point x="252" y="433"/>
      <point x="306" y="433" type="curve" smooth="yes"/>
      <point x="326" y="433"/>
      <point x="349" y="429"/>
      <point x="361" y="422" type="curve"/>
      <point x="376" y="488" type="line"/>
      <point x="364" y="493"/>
      <point x="343" y="497"/>
      <point x="325" y="497" type="curve" smooth="yes"/>
      <point x="267" y="497"/>
      <point x="215" y="462"/>
      <point x="178" y="399" type="curve"/>
      <point x="198" y="488" type="line"/>
      <point x="126" y="488" type="line"/>
    </contour>
  </outline>
</glyph>
<glyph name="x" format="2">
  <advance width="477"/>
  <unicode hex="0078"/>
  <outline>
    <contour>
      <point x="-43" y="0" type="line"/>
      <point x="45" y="0" type="line"/>
      <point x="229" y="199" type="line"/>
      <point x="330" y="0" type="line"/>
      <point x="409" y="0" type="line"/>
      <point x="279" y="249" type="line"/>
      <point x="507" y="488" type="line"/>
      <point x="421" y="488" type="line"/>
      <point x="251" y="304" type="line"/>
      <point x="159" y="488" type="line"/>
      <point x="79" y="488" type="line"/>
      <point x="200" y="257" type="line"/>
    </contour>
  </outline>
</glyph>
<glyph name="y" format="2">
  <advance width="489"/>
  <unicode hex="0079"/>
  <anchor x="286" y="488" name="top"/>
  <outline>
    <contour>
      <point x="11" y="-219" type="curve" smooth="yes"/>
      <point x="76" y="-219"/>
      <point x="122" y="-191"/>
      <point x="166" y="-117" type="curve" smooth="yes"/>
      <point x="526" y="488" type="line"/>
      <point x="445" y="488" type="line"/>
      <point x="207" y="84" type="line"/>
      <point x="144" y="488" type="line"/>
      <point x="68" y="488" type="line"/>
      <point x="152" y="-5" type="line"/>
      <point x="100" y="-93" type="line" smooth="yes"/>
      <point x="76" y="-134"/>
      <point x="49" y="-150"/>
      <point x="10" y="-150" type="curve" smooth="yes"/>
      <point x="0" y="-150"/>
      <point x="-12" y="-148"/>
      <point x="-31" y="-144" type="curve"/>
      <point x="-44" y="-209" type="line"/>
      <point x="-20" y="-216"/>
      <point x="-4" y="-219"/>
    </contour>
  </outline>
</glyph>
<glyph name="z" format="2">
  <advance width="449"/>
  <unicode hex="007A"/>
  <anchor x="264" y="488" name="top"/>
  <outline>
    <contour>
      <point x="-14" y="0" type="line"/>
      <point x="353" y="0" type="line"/>
      <point x="367" y="66" type="line"/>
      <point x="94" y="65" type="line"/>
      <point x="444" y="431" type="line"/>
      <point x="456" y="488" type="line"/>
      <point x="95" y="488" type="line"/>
      <point x="82" y="421" type="line"/>
      <point x="347" y="422" type="line"/>
      <point x="-2" y="58" type="line"/>
    </contour>
  </outline>
</glyph>
<glyph name="braceleft" format="2">
  <advance width="386"/>
  <unicode hex="007B"/>
  <outline>
    <contour>
      <point x="174" y="-219" type="curve" smooth="yes"/>
      <point x="193" y="-219"/>
      <point x="212" y="-217"/>
      <point x="237" y="-210" type="curve"/>
      <point x="236" y="-152" type="line"/>
      <point x="217" y="-158"/>
      <point x="203" y="-160"/>
      <point x="188" y="-160" type="curve" smooth="yes"/>
      <point x="114" y="-160"/>
      <point x="103" y="-101"/>
      <point x="144" y="-34" type="curve" smooth="yes"/>
      <point x="213" y="83" type="line" smooth="yes"/>
      <point x="255" y="152"/>
      <point x="237" y="219"/>
      <point x="172" y="244" type="curve"/>
      <point x="246" y="261"/>
      <point x="291" y="326"/>
      <point x="279" y="401" type="curve" smooth="yes"/>
      <point x="257" y="534" type="line" smooth="yes"/>
      <point x="245" y="604"/>
      <point x="280" y="651"/>
      <point x="340" y="651" type="curve" smooth="yes"/>
      <point x="357" y="651"/>
      <point x="382" y="646"/>
      <point x="402" y="636" type="curve"/>
      <point x="428" y="692" type="line"/>
      <point x="401" y="705"/>
      <point x="371" y="711"/>
      <point x="340" y="711" type="curve" smooth="yes"/>
      <point x="238" y="711"/>
      <point x="174" y="629"/>
      <point x="194" y="521" type="curve" smooth="yes"/>
      <point x="215" y="409" type="line" smooth="yes"/>
      <point x="229" y="334"/>
      <point x="189" y="279"/>
      <point x="119" y="279" type="curve" smooth="yes"/>
      <point x="45" y="279" type="line"/>
      <point x="32" y="218" type="line"/>
      <point x="106" y="218" type="line" smooth="yes"/>
      <point x="173" y="218"/>
      <point x="191" y="156"/>
      <point x="146" y="84" type="curve" smooth="yes"/>
      <point x="86" y="-13" type="line" smooth="yes"/>
      <point x="20" y="-118"/>
      <point x="46" y="-219"/>
    </contour>
  </outline>
</glyph>
<glyph name="bar" format="2">
  <advance width="285"/>
  <unicode hex="007C"/>
  <outline>
    <contour>
      <point x="14" y="-209" type="line"/>
      <point x="79" y="-209" type="line"/>
      <point x="272" y="700" type="line"/>
      <point x="206" y="700" type="line"/>
    </contour>
  </outline>
</glyph>
<glyph name="exclamdown" format="2">
  <advance width="214"/>
  <unicode hex="00A1"/>
  <outline>
    <contour>
      <point x="145" y="283" type="line"/>
      <point x="88" y="283" type="line"/>
      <point x="-34" y="-239" type="line"/>
      <point x="40" y="-239" type="line"/>
    </contour>
    <contour>
      <point x="154" y="496" type="curve" smooth="yes"/>
      <point x="124" y="496"/>
      <point x="97" y="468"/>
      <point x="97" y="437" type="curve" smooth="yes"/>
      <point x="97" y="411"/>
      <point x="116" y="390"/>
      <point x="143" y="390" type="curve" smooth="yes"/>
      <point x="174" y="390"/>
      <point x="201" y="417"/>
      <point x="201" y="448" type="curve" smooth="yes"/>
      <point x="201" y="475"/>
      <point x="181" y="496"/>
    </contour>
  </outline>
</glyph>
<glyph name="sterling" format="2">
  <advance width="606"/>
  <unicode hex="00A3"/>
  <outline>
    <contour>
      <point x="10" y="-18" type="line"/>
      <point x="49" y="35"/>
      <point x="94" y="47"/>
      <point x="159" y="31" type="curve" smooth="yes"/>
      <point x="337" y="-14" type="line" smooth="yes"/>
      <point x="429" y="-37"/>
      <point x="496" y="-21"/>
      <point x="553" y="49" type="curve"/>
      <point x="507" y="88" type="line"/>
      <point x="469" y="42"/>
      <point x="428" y="31"/>
      <point x="368" y="46" type="curve" smooth="yes"/>
      <point x="188" y="90" type="line" smooth="yes"/>
      <point x="187" y="90"/>
      <point x="184" y="91"/>
      <point x="182" y="92" type="curve"/>
      <point x="212" y="114"/>
      <point x="230" y="155"/>
      <point x="232" y="206" type="curve" smooth="yes"/>
      <point x="237" y="312" type="line"/>
      <point x="420" y="312" type="line"/>
      <point x="433" y="369" type="line"/>
      <point x="239" y="369" type="line"/>
      <point x="243" y="458" type="line" smooth="yes"/>
      <point x="248" y="578"/>
      <point x="299" y="649"/>
      <point x="387" y="649" type="curve" smooth="yes"/>
      <point x="476" y="649"/>
      <point x="525" y="600"/>
      <point x="530" y="504" type="curve"/>
      <point x="596" y="518" type="line"/>
      <point x="586" y="643"/>
      <point x="513" y="711"/>
      <point x="390" y="711" type="curve" smooth="yes"/>
      <point x="261" y="711"/>
      <point x="182" y="608"/>
      <point x="174" y="447" type="curve" smooth="yes"/>
      <point x="170" y="369" type="line"/>
      <point x="79" y="369" type="line"/>
      <point x="66" y="312" type="line"/>
      <point x="168" y="312" type="line"/>
      <point x="162" y="192" type="line" smooth="yes"/>
      <point x="160" y="147"/>
      <point x="142" y="115"/>
      <point x="113" y="102" type="curve"/>
      <point x="56" y="102"/>
      <point x="8" y="76"/>
      <point x="-36" y="23" type="curve"/>
    </contour>
  </outline>
</glyph>
<glyph name="copyright" format="2">
  <advance width="784"/>
  <unicode hex="00A9"/>
  <outline>
    <contour>
      <point x="401" y="167" type="curve" smooth="yes"/>
      <point x="444" y="167"/>
      <point x="487" y="183"/>
      <point x="522" y="212" type="curve"/>
      <point x="499" y="254" type="line"/>
      <point x="468" y="231"/>
      <point x="438" y="219"/>
      <point x="409" y="219" type="curve" smooth="yes"/>
      <point x="348" y="219"/>
      <point x="303" y="267"/>
      <point x="303" y="332" type="curve" smooth="yes"/>
      <point x="303" y="412"/>
      <point x="366" y="482"/>
      <point x="438" y="482" type="curve" smooth="yes"/>
      <point x="476" y="482"/>
      <point x="513" y="461"/>
      <point x="535" y="426" type="curve"/>
      <point x="577" y="462" type="line"/>
      <point x="550" y="506"/>
      <point x="497" y="533"/>
      <point x="441" y="533" type="curve" smooth="yes"/>
      <point x="338" y="533"/>
      <point x="249" y="438"/>
      <point x="249" y="328" type="curve" smooth="yes"/>
      <point x="249" y="235"/>
      <point x="314" y="167"/>
    </contour>
    <contour>
      <point x="384" y="-11" type="curve" smooth="yes"/>
      <point x="585" y="-11"/>
      <point x="754" y="170"/>
      <point x="754" y="386" type="curve" smooth="yes"/>
      <point x="754" y="574"/>
      <point x="622" y="711"/>
      <point x="443" y="711" type="curve" smooth="yes"/>
      <point x="242" y="711"/>
      <point x="73" y="529"/>
      <point x="73" y="311" type="curve" smooth="yes"/>
      <point x="73" y="125"/>
      <point x="205" y="-11"/>
    </contour>
    <contour>
      <point x="384" y="31" type="curve" smooth="yes"/>
      <point x="232" y="31"/>
      <point x="119" y="152"/>
      <point x="119" y="315" type="curve" smooth="yes"/>
      <point x="119" y="506"/>
      <point x="266" y="668"/>
      <point x="440" y="668" type="curve" smooth="yes"/>
      <point x="595" y="668"/>
      <point x="709" y="547"/>
      <point x="709" y="381" type="curve" smooth="yes"/>
      <point x="709" y="193"/>
      <point x="560" y="31"/>
    </contour>
  </outline>
</glyph>
<glyph name="macron" format="2">
  <advance width="600"/>
  <unicode hex="00AF"/>
  <outline>
    <contour>
      <point x="238" y="611" type="line"/>
      <point x="506" y="611" type="line"/>
      <point x="517" y="663" type="line"/>
      <point x="249" y="663" type="line"/>
    </contour>
  </outline>
</glyph>
<glyph name="degree" format="2">
  <advance width="398"/>
  <unicode hex="00B0"/>
  <outline>
    <contour>
      <point x="246" y="424" type="curve" smooth="yes"/>
      <point x="337" y="424"/>
      <point x="411" y="500"/>
      <point x="411" y="593" type="curve" smooth="yes"/>
      <point x="411" y="658"/>
      <point x="355" y="710"/>
      <point x="287" y="710" type="curve" smooth="yes"/>
      <point x="196" y="710"/>
      <point x="122" y="634"/>
      <point x="122" y="541" type="curve" smooth="yes"/>
      <point x="122" y="476"/>
      <point x="178" y="424"/>
    </contour>
    <contour>
      <point x="247" y="472" type="curve" smooth="yes"/>
      <point x="206" y="472"/>
      <point x="172" y="506"/>
      <point x="172" y="548" type="curve" smooth="yes"/>
      <point x="172" y="610"/>
      <point x="223" y="661"/>
      <point x="286" y="661" type="curve" smooth="yes"/>
      <point x="327" y="661"/>
      <point x="361" y="627"/>
      <point x="361" y="585" type="curve" smooth="yes"/>
      <point x="361" y="523"/>
      <point x="310" y="472"/>
    </contour>
  </outline>
</glyph>
<glyph name="paragraph" format="2">
  <advance width="639"/>
  <unicode hex="00B6"/>
  <outline>
    <contour>
      <point x="258" y="0" type="line"/>
      <point x="323" y="0" type="line"/>
      <point x="384" y="289" type="line"/>
      <point x="495" y="289" type="line"/>
      <point x="433" y="0" type="line"/>
      <point x="498" y="0" type="line"/>
      <point x="647" y="700" type="line"/>
      <point x="330" y="700" type="line" smooth="yes"/>
      <point x="197" y="700"/>
      <point x="102" y="603"/>
      <point x="102" y="468" type="curve" smooth="yes"/>
      <point x="102" y="361"/>
      <point x="176" y="289"/>
      <point x="288" y="289" type="curve" smooth="yes"/>
      <point x="319" y="289" type="line"/>
    </contour>
    <contour>
      <point x="398" y="352" type="line"/>
      <point x="458" y="637" type="line"/>
      <point x="569" y="637" type="line"/>
      <point x="508" y="352" type="line"/>
    </contour>
    <contour>
      <point x="294" y="352" type="line" smooth="yes"/>
      <point x="217" y="352"/>
      <point x="169" y="399"/>
      <point x="169" y="476" type="curve" smooth="yes"/>
      <point x="169" y="570"/>
      <point x="233" y="637"/>
      <point x="324" y="637" type="curve" smooth="yes"/>
      <point x="393" y="637" type="line"/>
      <point x="333" y="352" type="line"/>
    </contour>
  </outline>
</glyph>
<glyph name="periodcentered" format="2">
  <advance width="250"/>
  <unicode hex="00B7"/>
  <outline>
    <contour>
      <point x="125" y="229" type="curve" smooth="yes"/>
      <point x="155" y="229"/>
      <point x="182" y="258"/>
      <point x="182" y="289" type="curve" smooth="yes"/>
      <point x="182" y="317"/>
      <point x="162" y="338"/>
      <point x="136" y="338" type="curve" smooth="yes"/>
      <point x="105" y="338"/>
      <point x="78" y="310"/>
      <point x="78" y="278" type="curve" smooth="yes"/>
      <point x="78" y="250"/>
      <point x="98" y="229"/>
    </contour>
  </outline>
</glyph>
<glyph name="guillemotright" format="2">
  <advance width="624"/>
  <unicode hex="00BB"/>
  <outline>
    <contour>
      <point x="416" y="488" type="line"/>
      <point x="341" y="488" type="line"/>
      <point x="501" y="247" type="line"/>
      <point x="231" y="0" type="line"/>
      <point x="309" y="0" type="line"/>
      <point x="581" y="243" type="line"/>
    </contour>
    <contour>
      <point x="193" y="488" type="line"/>
      <point x="118" y="488" type="line"/>
      <point x="278" y="247" type="line"/>
      <point x="8" y="0" type="line"/>
      <point x="86" y="0" type="line"/>
      <point x="358" y="243" type="line"/>
    </contour>
  </outline>
</glyph>
<glyph name="questiondown" format="2">
  <advance width="501"/>
  <unicode hex="00BF"/>
  <outline>
    <contour>
      <point x="334" y="496" type="curve" smooth="yes"/>
      <point x="304" y="496"/>
      <point x="277" y="468"/>
      <point x="277" y="437" type="curve" smooth="yes"/>
      <point x="277" y="411"/>
      <point x="296" y="390"/>
      <point x="322" y="390" type="curve" smooth="yes"/>
      <point x="353" y="390"/>
      <point x="380" y="417"/>
      <point x="380" y="448" type="curve" smooth="yes"/>
      <point x="380" y="475"/>
      <point x="361" y="496"/>
    </contour>
    <contour>
      <point x="329" y="281" type="curve"/>
      <point x="268" y="281" type="line"/>
      <point x="258" y="220"/>
      <point x="234" y="183"/>
      <point x="180" y="152" type="curve" smooth="yes"/>
      <point x="121" y="117" type="line" smooth="yes"/>
      <point x="33" y="64"/>
      <point x="-5" y="8"/>
      <point x="-5" y="-66" type="curve" smooth="yes"/>
      <point x="-5" y="-157"/>
      <point x="70" y="-219"/>
      <point x="179" y="-219" type="curve" smooth="yes"/>
      <point x="257" y="-219"/>
      <point x="335" y="-182"/>
      <point x="399" y="-115" type="curve"/>
      <point x="354" y="-74" type="line"/>
      <point x="305" y="-124"/>
      <point x="247" y="-153"/>
      <point x="189" y="-153" type="curve" smooth="yes"/>
      <point x="116" y="-153"/>
      <point x="66" y="-113"/>
      <point x="66" y="-57" type="curve"/>
      <point x="66" y="-11"/>
      <point x="97" y="34"/>
      <point x="151" y="67" type="curve" smooth="yes"/>
      <point x="213" y="103" type="line" smooth="yes"/>
      <point x="282" y="143"/>
      <point x="315" y="193"/>
    </contour>
  </outline>
</glyph>
<glyph name="Ccedilla" format="2">
  <advance width="713"/>
  <unicode hex="00C7"/>
  <outline>
    <contour>
      <point x="345" y="-239" type="curve" smooth="yes"/>
      <point x="411" y="-239"/>
      <point x="461" y="-195"/>
      <point x="461" y="-138" type="curve" smooth="yes"/>
      <point x="461" y="-99"/>
      <point x="431" y="-70"/>
      <point x="380" y="-66" type="curve"/>
      <point x="404" y="-11" type="line"/>
      <point x="493" y="-11"/>
      <point x="585" y="27"/>
      <point x="659" y="95" type="curve"/>
      <point x="619" y="147" type="line"/>
      <point x="561" y="91"/>
      <point x="484" y="58"/>
      <point x="406" y="58" type="curve" smooth="yes"/>
      <point x="260" y="58"/>
      <point x="153" y="170"/>
      <point x="153" y="323" type="curve" smooth="yes"/>
      <point x="153" y="500"/>
      <point x="283" y="640"/>
      <point x="447" y="640" type="curve" smooth="yes"/>
      <point x="534" y="640"/>
      <point x="610" y="601"/>
      <point x="653" y="534" type="curve"/>
      <point x="710" y="584" type="line"/>
      <point x="652" y="667"/>
      <point x="562" y="710"/>
      <point x="451" y="710" type="curve" smooth="yes"/>
      <point x="246" y="710"/>
      <point x="76" y="534"/>
      <point x="76" y="320" type="curve" smooth="yes"/>
      <point x="76" y="144"/>
      <point x="197" y="9"/>
      <point x="363" y="-9" type="curve"/>
      <point x="323" y="-99" type="line"/>
      <point x="351" y="-99" type="line" smooth="yes"/>
      <point x="391" y="-99"/>
      <point x="415" y="-116"/>
      <point x="415" y="-144" type="curve" smooth="yes"/>
      <point x="415" y="-177"/>
      <point x="387" y="-199"/>
      <point x="343" y="-199" type="curve" smooth="yes"/>
      <point x="314" y="-199"/>
      <point x="290" y="-189"/>
      <point x="270" y="-167" type="curve"/>
      <point x="239" y="-197" type="line"/>
      <point x="261" y="-224"/>
      <point x="300" y="-239"/>
    </contour>
  </outline>
</glyph>
<glyph name="Thorn" format="2">
  <advance width="650"/>
  <unicode hex="00DE"/>
  <outline>
    <contour>
      <point x="34" y="0" type="line"/>
      <point x="109" y="0" type="line"/>
      <point x="141" y="152" type="line"/>
      <point x="359" y="152" type="line" smooth="yes"/>
      <point x="514" y="152"/>
      <point x="614" y="242"/>
      <point x="614" y="381" type="curve" smooth="yes"/>
      <point x="614" y="492"/>
      <point x="542" y="553"/>
      <point x="407" y="553" type="curve" smooth="yes"/>
      <point x="227" y="553" type="line"/>
      <point x="258" y="700" type="line"/>
      <point x="183" y="700" type="line"/>
    </contour>
    <contour>
      <point x="155" y="217" type="line"/>
      <point x="212" y="485" type="line"/>
      <point x="396" y="485" type="line" smooth="yes"/>
      <point x="493" y="485"/>
      <point x="539" y="450"/>
      <point x="539" y="376" type="curve" smooth="yes"/>
      <point x="539" y="275"/>
      <point x="473" y="217"/>
      <point x="358" y="217" type="curve" smooth="yes"/>
    </contour>
  </outline>
</glyph>
<glyph name="germandbls" format="2">
  <advance width="620"/>
  <unicode hex="00DF"/>
  <outline>
    <contour>
      <point x="394" y="-12" type="curve" smooth="yes"/>
      <point x="495" y="-12"/>
      <point x="570" y="55"/>
      <point x="570" y="146" type="curve" smooth="yes"/>
      <point x="570" y="203"/>
      <point x="539" y="243"/>
      <point x="466" y="276" type="curve" smooth="yes"/>
      <point x="402" y="307" type="line" smooth="yes"/>
      <point x="372" y="320"/>
      <point x="359" y="338"/>
      <point x="359" y="361" type="curve" smooth="yes"/>
      <point x="359" y="451"/>
      <point x="582" y="432"/>
      <point x="582" y="603" type="curve" smooth="yes"/>
      <point x="582" y="698"/>
      <point x="500" y="765"/>
      <point x="386" y="765" type="curve" smooth="yes"/>
      <point x="251" y="765"/>
      <point x="157" y="681"/>
      <point x="128" y="533" type="curve" smooth="yes"/>
      <point x="20" y="0" type="line"/>
      <point x="90" y="0" type="line"/>
      <point x="198" y="527" type="line" smooth="yes"/>
      <point x="222" y="642"/>
      <point x="285" y="701"/>
      <point x="384" y="701" type="curve" smooth="yes"/>
      <point x="454" y="701"/>
      <point x="511" y="656"/>
      <point x="511" y="601" type="curve" smooth="yes"/>
      <point x="511" y="465"/>
      <point x="289" y="498"/>
      <point x="289" y="351" type="curve" smooth="yes"/>
      <point x="289" y="309"/>
      <point x="312" y="276"/>
      <point x="360" y="254" type="curve" smooth="yes"/>
      <point x="426" y="225" type="line" smooth="yes"/>
      <point x="482" y="200"/>
      <point x="503" y="177"/>
      <point x="503" y="141" type="curve" smooth="yes"/>
      <point x="503" y="84"/>
      <point x="460" y="46"/>
      <point x="395" y="46" type="curve" smooth="yes"/>
      <point x="338" y="46"/>
      <point x="289" y="71"/>
      <point x="257" y="118" type="curve"/>
      <point x="209" y="75" type="line"/>
      <point x="255" y="17"/>
      <point x="316" y="-12"/>
    </contour>
  </outline>
</glyph>
<glyph name="ccedilla" format="2">
  <advance width="497"/>
  <unicode hex="00E7"/>
  <outline>
    <contour>
      <point x="209" y="-239" type="curve" smooth="yes"/>
      <point x="275" y="-239"/>
      <point x="325" y="-195"/>
      <point x="325" y="-138" type="curve" smooth="yes"/>
      <point x="325" y="-97"/>
      <point x="295" y="-71"/>
      <point x="244" y="-66" type="curve"/>
      <point x="269" y="-9" type="line"/>
      <point x="329" y="-7"/>
      <point x="389" y="15"/>
      <point x="438" y="56" type="curve"/>
      <point x="404" y="103" type="line"/>
      <point x="366" y="73"/>
      <point x="320" y="55"/>
      <point x="272" y="55" type="curve" smooth="yes"/>
      <point x="188" y="55"/>
      <point x="122" y="124"/>
      <point x="122" y="214" type="curve" smooth="yes"/>
      <point x="122" y="330"/>
      <point x="210" y="428"/>
      <point x="313" y="428" type="curve" smooth="yes"/>
      <point x="368" y="428"/>
      <point x="414" y="403"/>
      <point x="445" y="356" type="curve"/>
      <point x="499" y="401" type="line"/>
      <point x="461" y="458"/>
      <point x="389" y="494"/>
      <point x="316" y="494" type="curve" smooth="yes"/>
      <point x="172" y="494"/>
      <point x="51" y="365"/>
      <point x="51" y="210" type="curve" smooth="yes"/>
      <point x="51" y="95"/>
      <point x="124" y="8"/>
      <point x="228" y="-7" type="curve"/>
      <point x="187" y="-99" type="line"/>
      <point x="215" y="-99" type="line" smooth="yes"/>
      <point x="255" y="-99"/>
      <point x="279" y="-116"/>
      <point x="279" y="-144" type="curve" smooth="yes"/>
      <point x="279" y="-177"/>
      <point x="251" y="-199"/>
      <point x="207" y="-199" type="curve" smooth="yes"/>
      <point x="178" y="-199"/>
      <point x="154" y="-189"/>
      <point x="134" y="-167" type="curve"/>
      <point x="103" y="-197" type="line"/>
      <point x="125" y="-224"/>
      <point x="164" y="-239"/>
    </contour>
  </outline>
</glyph>
<glyph name="thorn" format="2">
  <advance width="571"/>
  <unicode hex="00FE"/>
  <outline>
    <contour>
      <point x="-23" y="-209" type="line"/>
      <point x="49" y="-209" type="line"/>
      <point x="109" y="77" type="line"/>
      <point x="142" y="22"/>
      <point x="198" y="-8"/>
      <point x="267" y="-8" type="curve" smooth="yes"/>
      <point x="406" y="-8"/>
      <point x="520" y="118"/>
      <point x="520" y="271" type="curve" smooth="yes"/>
      <point x="520" y="398"/>
      <point x="437" y="492"/>
      <point x="325" y="492" type="curve" smooth="yes"/>
      <point x="270" y="492"/>
      <point x="221" y="471"/>
      <point x="182" y="432" type="curve"/>
      <point x="246" y="737" type="line"/>
      <point x="172" y="722" type="line"/>
    </contour>
    <contour>
      <point x="299" y="430" type="curve" smooth="yes"/>
      <point x="388" y="430"/>
      <point x="449" y="363"/>
      <point x="449" y="265" type="curve" smooth="yes"/>
      <point x="449" y="148"/>
      <point x="365" y="56"/>
      <point x="258" y="56" type="curve" smooth="yes"/>
      <point x="200" y="56"/>
      <point x="145" y="89"/>
      <point x="121" y="137" type="curve"/>
      <point x="171" y="375" type="line"/>
      <point x="206" y="410"/>
      <point x="251" y="430"/>
    </contour>
  </outline>
</glyph>
<glyph name="aogonek" format="2">
  <advance width="516"/>
  <unicode hex="0105"/>
  <outline>
    <contour>
      <point x="307" y="-232" type="curve" smooth="yes"/>
      <point x="331" y="-232"/>
      <point x="355" y="-227"/>
      <point x="373" y="-218" type="curve"/>
      <point x="369" y="-178" type="line"/>
      <point x="356" y="-183"/>
      <point x="337" y="-187"/>
      <point x="323" y="-187" type="curve" smooth="yes"/>
      <point x="288" y="-187"/>
      <point x="263" y="-168"/>
      <point x="263" y="-139" type="curve" smooth="yes"/>
      <point x="263" y="-92"/>
      <point x="305" y="-48"/>
      <point x="394" y="0" type="curve"/>
      <point x="462" y="305" type="line" smooth="yes"/>
      <point x="488" y="423"/>
      <point x="423" y="495"/>
      <point x="292" y="495" type="curve" smooth="yes"/>
      <point x="239" y="495"/>
      <point x="183" y="482"/>
      <point x="119" y="455" type="curve"/>
      <point x="139" y="398" type="line"/>
      <point x="196" y="424"/>
      <point x="239" y="435"/>
      <point x="279" y="435" type="curve" smooth="yes"/>
      <point x="372" y="435"/>
      <point x="410" y="389"/>
      <point x="390" y="299" type="curve" smooth="yes"/>
      <point x="377" y="240" type="line"/>
      <point x="335" y="270"/>
      <point x="279" y="287"/>
      <point x="216" y="287" type="curve" smooth="yes"/>
      <point x="105" y="287"/>
      <point x="29" y="223"/>
      <point x="29" y="130" type="curve" smooth="yes"/>
      <point x="29" y="47"/>
      <point x="94" y="-7"/>
      <point x="191" y="-7" type="curve" smooth="yes"/>
      <point x="241" y="-7"/>
      <point x="287" y="10"/>
      <point x="333" y="46" type="curve"/>
      <point x="323" y="0" type="line"/>
      <point x="334" y="0" type="line"/>
      <point x="252" y="-48"/>
      <point x="212" y="-99"/>
      <point x="212" y="-154" type="curve" smooth="yes"/>
      <point x="212" y="-201"/>
      <point x="250" y="-232"/>
    </contour>
    <contour>
      <point x="212" y="48" type="curve" smooth="yes"/>
      <point x="140" y="48"/>
      <point x="98" y="81"/>
      <point x="98" y="138" type="curve" smooth="yes"/>
      <point x="98" y="193"/>
      <point x="150" y="233"/>
      <point x="223" y="233" type="curve" smooth="yes"/>
      <point x="283" y="233"/>
      <point x="328" y="220"/>
      <point x="366" y="191" type="curve"/>
      <point x="345" y="98" type="line"/>
      <point x="302" y="64"/>
      <point x="260" y="48"/>
    </contour>
  </outline>
</glyph>
<glyph name="gcommaaccent" format="2">
  <advance width="565"/>
  <unicode hex="0123"/>
  <outline>
    <contour>
      <point x="474" y="797" type="line"/>
      <point x="421" y="797" type="line"/>
      <point x="310" y="610" type="line"/>
      <point x="387" y="610" type="line"/>
    </contour>
    <component base="g"/>
  </outline>
</glyph>
<glyph name="Iogonek" format="2">
  <advance width="247"/>
  <unicode hex="012E"/>
  <outline>
    <contour>
      <point x="20" y="-232" type="curve" smooth="yes"/>
      <point x="44" y="-232"/>
      <point x="68" y="-227"/>
      <point x="86" y="-218" type="curve"/>
      <point x="82" y="-178" type="line"/>
      <point x="69" y="-183"/>
      <point x="50" y="-187"/>
      <point x="36" y="-187" type="curve" smooth="yes"/>
      <point x="1" y="-187"/>
      <point x="-24" y="-168"/>
      <point x="-24" y="-139" type="curve" smooth="yes"/>
      <point x="-24" y="-92"/>
      <point x="18" y="-48"/>
      <point x="107" y="0" type="curve"/>
      <point x="256" y="700" type="line"/>
      <point x="181" y="700" type="line"/>
      <point x="32" y="0" type="line"/>
      <point x="47" y="0" type="line"/>
      <point x="-35" y="-48"/>
      <point x="-75" y="-99"/>
      <point x="-75" y="-154" type="curve" smooth="yes"/>
      <point x="-75" y="-201"/>
      <point x="-37" y="-232"/>
    </contour>
  </outline>
</glyph>
<glyph name="iogonek" format="2">
  <advance width="220"/>
  <unicode hex="012F"/>
  <outline>
    <contour>
      <point x="189" y="608" type="curve" smooth="yes"/>
      <point x="220" y="608"/>
      <point x="246" y="635"/>
      <point x="246" y="666" type="curve" smooth="yes"/>
      <point x="246" y="692"/>
      <point x="226" y="713"/>
      <point x="200" y="713" type="curve" smooth="yes"/>
      <point x="170" y="713"/>
      <point x="143" y="685"/>
      <point x="143" y="655" type="curve" smooth="yes"/>
      <point x="143" y="628"/>
      <point x="162" y="608"/>
    </contour>
    <contour>
      <point x="6" y="-232" type="curve" smooth="yes"/>
      <point x="30" y="-232"/>
      <point x="54" y="-227"/>
      <point x="72" y="-218" type="curve"/>
      <point x="68" y="-178" type="line"/>
      <point x="55" y="-183"/>
      <point x="36" y="-187"/>
      <point x="22" y="-187" type="curve" smooth="yes"/>
      <point x="-13" y="-187"/>
      <point x="-38" y="-168"/>
      <point x="-38" y="-139" type="curve" smooth="yes"/>
      <point x="-38" y="-92"/>
      <point x="4" y="-48"/>
      <point x="93" y="0" type="curve"/>
      <point x="199" y="488" type="line"/>
      <point x="128" y="488" type="line"/>
      <point x="21" y="0" type="line"/>
      <point x="33" y="0" type="line"/>
      <point x="-49" y="-48"/>
      <point x="-89" y="-99"/>
      <point x="-89" y="-154" type="curve" smooth="yes"/>
      <point x="-89" y="-201"/>
      <point x="-51" y="-232"/>
    </contour>
  </outline>
</glyph>
<glyph name="dotlessi" format="2">
  <advance width="220"/>
  <unicode hex="0131"/>
  <anchor x="163" y="488" name="top"/>
  <anchor x="93" y="0" name="bottom"/>
  <outline>
    <contour>
      <point x="21" y="0" type="line"/>
      <point x="93" y="0" type="line"/>
      <point x="199" y="488" type="line"/>
      <point x="128" y="488" type="line"/>
    </contour>
  </outline>
</glyph>
<glyph name="Eng" format="2">
  <advance width="725"/>
  <unicode hex="014A"/>
  <outline>
    <contour>
      <point x="427" y="-207" type="curve" smooth="yes"/>
      <point x="498" y="-207"/>
      <point x="549" y="-163"/>
      <point x="565" y="-87" type="curve" smooth="yes"/>
      <point x="732" y="700" type="line"/>
      <point x="661" y="700" type="line"/>
      <point x="540" y="118" type="line"/>
      <point x="261" y="700" type="line"/>
      <point x="182" y="700" type="line"/>
      <point x="34" y="0" type="line"/>
      <point x="105" y="0" type="line"/>
      <point x="229" y="598" type="line"/>
      <point x="516" y="2" type="line"/>
      <point x="499" y="-78" type="line" smooth="yes"/>
      <point x="490" y="-122"/>
      <point x="468" y="-143"/>
      <point x="429" y="-143" type="curve" smooth="yes"/>
      <point x="412" y="-143"/>
      <point x="399" y="-141"/>
      <point x="389" y="-137" type="curve"/>
      <point x="376" y="-199" type="line"/>
      <point x="388" y="-204"/>
      <point x="408" y="-207"/>
    </contour>
  </outline>
</glyph>
<glyph name="OE" format="2">
  <advance width="1047"/>
  <unicode hex="0152"/>
  <outline>
    <contour>
      <point x="379" y="0" type="curve" smooth="yes"/>
      <point x="942" y="0" type="line"/>
      <point x="956" y="68" type="line"/>
      <point x="565" y="68" type="line"/>
      <point x="646" y="125"/>
      <point x="705" y="217"/>
      <point x="722" y="320" type="curve"/>
      <point x="890" y="320" type="line"/>
      <point x="905" y="387" type="line"/>
      <point x="728" y="387" type="line"/>
      <point x="728" y="488"/>
      <point x="686" y="577"/>
      <point x="617" y="632" type="curve"/>
      <point x="1076" y="632" type="line"/>
      <point x="1091" y="700" type="line"/>
      <point x="448" y="700" type="line" smooth="yes"/>
      <point x="242" y="700"/>
      <point x="74" y="527"/>
      <point x="74" y="314" type="curve" smooth="yes"/>
      <point x="74" y="131"/>
      <point x="201" y="0"/>
    </contour>
    <contour>
      <point x="375" y="70" type="curve" smooth="yes"/>
      <point x="244" y="70"/>
      <point x="150" y="174"/>
      <point x="150" y="318" type="curve" smooth="yes"/>
      <point x="150" y="487"/>
      <point x="279" y="630"/>
      <point x="431" y="630" type="curve" smooth="yes"/>
      <point x="561" y="630"/>
      <point x="655" y="526"/>
      <point x="655" y="383" type="curve" smooth="yes"/>
      <point x="655" y="212"/>
      <point x="528" y="70"/>
    </contour>
  </outline>
</glyph>
<glyph name="oe" format="2">
  <advance width="941"/>
  <unicode hex="0153"/>
  <outline>
    <contour>
      <point x="261" y="-10" type="curve" smooth="yes"/>
      <point x="348" y="-10"/>
      <point x="425" y="38"/>
      <point x="471" y="111" type="curve"/>
      <point x="505" y="37"/>
      <point x="578" y="-9"/>
      <point x="670" y="-9" type="curve" smooth="yes"/>
      <point x="730" y="-9"/>
      <point x="783" y="7"/>
      <point x="840" y="45" type="curve"/>
      <point x="802" y="97" type="line"/>
      <point x="768" y="70"/>
      <point x="720" y="54"/>
      <point x="673" y="54" type="curve" smooth="yes"/>
      <point x="581" y="54"/>
      <point x="514" y="130"/>
      <point x="518" y="228" type="curve"/>
      <point x="892" y="228" type="line"/>
      <point x="894" y="247"/>
      <point x="895" y="263"/>
      <point x="895" y="281" type="curve" smooth="yes"/>
      <point x="895" y="406"/>
      <point x="813" y="496"/>
      <point x="699" y="496" type="curve" smooth="yes"/>
      <point x="615" y="496"/>
      <point x="540" y="449"/>
      <point x="495" y="377" type="curve"/>
      <point x="462" y="451"/>
      <point x="394" y="497"/>
      <point x="307" y="497" type="curve" smooth="yes"/>
      <point x="166" y="497"/>
      <point x="51" y="372"/>
      <point x="51" y="218" type="curve" smooth="yes"/>
      <point x="51" y="85"/>
      <point x="139" y="-10"/>
    </contour>
    <contour>
      <point x="265" y="55" type="curve" smooth="yes"/>
      <point x="180" y="55"/>
      <point x="122" y="122"/>
      <point x="122" y="219" type="curve" smooth="yes"/>
      <point x="122" y="337"/>
      <point x="203" y="433"/>
      <point x="304" y="433" type="curve" smooth="yes"/>
      <point x="389" y="433"/>
      <point x="446" y="366"/>
      <point x="446" y="269" type="curve" smooth="yes"/>
      <point x="446" y="150"/>
      <point x="366" y="55"/>
    </contour>
    <contour>
      <point x="694" y="432" type="curve" smooth="yes"/>
      <point x="771" y="432"/>
      <point x="829" y="365"/>
      <point x="827" y="280" type="curve"/>
      <point x="525" y="280" type="line"/>
      <point x="547" y="369"/>
      <point x="613" y="432"/>
    </contour>
  </outline>
</glyph>
<glyph name="Tcedilla" format="2">
  <advance width="605"/>
  <unicode hex="0162"/>
  <outline>
    <contour>
      <point x="207" y="-239" type="curve" smooth="yes"/>
      <point x="273" y="-239"/>
      <point x="323" y="-195"/>
      <point x="323" y="-138" type="curve" smooth="yes"/>
      <point x="323" y="-97"/>
      <point x="293" y="-71"/>
      <point x="242" y="-66" type="curve"/>
      <point x="271" y="0" type="line"/>
      <point x="286" y="0" type="line"/>
      <point x="421" y="632" type="line"/>
      <point x="656" y="632" type="line"/>
      <point x="671" y="700" type="line"/>
      <point x="123" y="700" type="line"/>
      <point x="108" y="632" type="line"/>
      <point x="346" y="632" type="line"/>
      <point x="211" y="0" type="line"/>
      <point x="229" y="0" type="line"/>
      <point x="185" y="-99" type="line"/>
      <point x="213" y="-99" type="line" smooth="yes"/>
      <point x="253" y="-99"/>
      <point x="277" y="-116"/>
      <point x="277" y="-144" type="curve" smooth="yes"/>
      <point x="277" y="-177"/>
      <point x="249" y="-199"/>
      <point x="205" y="-199" type="curve" smooth="yes"/>
      <point x="176" y="-199"/>
      <point x="152" y="-189"/>
      <point x="132" y="-167" type="curve"/>
      <point x="101" y="-197" type="line"/>
      <point x="123" y="-224"/>
      <point x="162" y="-239"/>
    </contour>
  </outline>
</glyph>
<glyph name="tcaron" format="2">
  <advance width="371"/>
  <unicode hex="0165"/>
  <outline>
    <contour>
      <point x="358" y="587" type="line"/>
      <point x="415" y="587" type="line"/>
      <point x="482" y="783" type="line"/>
      <point x="402" y="768" type="line"/>
    </contour>
    <component base="t"/>
  </outline>
</glyph>
<glyph name="Tbar" format="2">
  <advance width="605"/>
  <unicode hex="0166"/>
  <outline>
    <contour>
      <point x="211" y="0" type="line"/>
      <point x="286" y="0" type="line"/>
      <point x="352" y="308" type="line"/>
      <point x="502" y="308" type="line"/>
      <point x="517" y="370" type="line"/>
      <point x="365" y="370" type="line"/>
      <point x="421" y="632" type="line"/>
      <point x="656" y="632" type="line"/>
      <point x="671" y="700" type="line"/>
      <point x="123" y="700" type="line"/>
      <point x="108" y="632" type="line"/>
      <point x="346" y="632" type="line"/>
      <point x="290" y="370" type="line"/>
      <point x="139" y="370" type="line"/>
      <point x="124" y="308" type="line"/>
      <point x="277" y="308" type="line"/>
    </contour>
  </outline>
</glyph>
<glyph name="circumflex" format="2">
  <advance width="600"/>
  <unicode hex="02C6"/>
  <outline>
    <contour>
      <point x="219" y="579" type="line"/>
      <point x="280" y="579" type="line"/>
      <point x="391" y="663" type="line"/>
      <point x="464" y="579" type="line"/>
      <point x="520" y="579" type="line"/>
      <point x="433" y="706" type="line"/>
      <point x="356" y="706" type="line"/>
    </contour>
  </outline>
</glyph>
<glyph name="caron" format="2">
  <advance width="600"/>
  <unicode hex="02C7"/>
  <outline>
    <contour>
      <point x="330" y="583" type="line"/>
      <point x="407" y="583" type="line"/>
      <point x="544" y="710" type="line"/>
      <point x="482" y="710" type="line"/>
      <point x="373" y="626" type="line"/>
      <point x="301" y="710" type="line"/>
      <point x="244" y="710" type="line"/>
    </contour>
  </outline>
</glyph>
<glyph name="dotaccent" format="2">
  <unicode hex="02D9"/>
  <guideline x="303" y="713" angle="0.0" identifier="U1JLGBQLuf"/>
  <guideline x="307" y="609" angle="0.0" identifier="24p1dHp2rB"/>
  <outline>
    <contour>
      <point x="381" y="609" type="curve" smooth="yes"/>
      <point x="412" y="609"/>
      <point x="439" y="636"/>
      <point x="439" y="664" type="curve" smooth="yes"/>
      <point x="439" y="691"/>
      <point x="416" y="713"/>
      <point x="390" y="713" type="curve" smooth="yes"/>
      <point x="360" y="713"/>
      <point x="333" y="686"/>
      <point x="333" y="657" type="curve" smooth="yes"/>
      <point x="333" y="631"/>
      <point x="354" y="609"/>
    </contour>
  </outline>
</glyph>
<glyph name="tilde" format="2">
  <advance width="600"/>
  <unicode hex="02DC"/>
  <outline>
    <contour>
      <point x="257" y="585" type="line"/>
      <point x="276" y="628"/>
      <point x="291" y="644"/>
      <point x="314" y="644" type="curve" smooth="yes"/>
      <point x="355" y="644"/>
      <point x="394" y="582"/>
      <point x="454" y="582" type="curve" smooth="yes"/>
      <point x="493" y="582"/>
      <point x="529" y="615"/>
      <point x="558" y="678" type="curve"/>
      <point x="509" y="693" type="line"/>
      <point x="487" y="646"/>
      <point x="476" y="633"/>
      <point x="456" y="633" type="curve" smooth="yes"/>
      <point x="416" y="633"/>
      <point x="375" y="696"/>
      <point x="315" y="696" type="curve" smooth="yes"/>
      <point x="276" y="696"/>
      <point x="239" y="663"/>
      <point x="208" y="600" type="curve"/>
    </contour>
  </outline>
</glyph>
<glyph name="uni2015" format="2">
  <advance width="912"/>
  <unicode hex="2015"/>
  <outline>
    <contour>
      <point x="59" y="250" type="line"/>
      <point x="850" y="250" type="line"/>
      <point x="864" y="313" type="line"/>
      <point x="74" y="313" type="line"/>
    </contour>
  </outline>
</glyph>
<glyph name="daggerdbl" format="2">
  <advance width="426"/>
  <unicode hex="2021"/>
  <outline>
    <contour>
      <point x="128" y="0" type="line"/>
      <point x="191" y="0" type="line"/>
      <point x="234" y="200" type="line"/>
      <point x="365" y="200" type="line"/>
      <point x="378" y="257" type="line"/>
      <point x="246" y="257" type="line"/>
      <point x="285" y="443" type="line"/>
      <point x="417" y="443" type="line"/>
      <point x="430" y="500" type="line"/>
      <point x="297" y="500" type="line"/>
      <point x="340" y="700" type="line"/>
      <point x="277" y="700" type="line"/>
      <point x="234" y="500" type="line"/>
      <point x="103" y="500" type="line"/>
      <point x="90" y="443" type="line"/>
      <point x="222" y="443" type="line"/>
      <point x="183" y="257" type="line"/>
      <point x="52" y="257" type="line"/>
      <point x="38" y="200" type="line"/>
      <point x="171" y="200" type="line"/>
    </contour>
  </outline>
</glyph>
<glyph name="bullet" format="2">
  <advance width="336"/>
  <unicode hex="2022"/>
  <outline>
    <contour>
      <point x="178" y="254" type="curve" smooth="yes"/>
      <point x="235" y="254"/>
      <point x="286" y="306"/>
      <point x="286" y="367" type="curve" smooth="yes"/>
      <point x="286" y="416"/>
      <point x="249" y="454"/>
      <point x="200" y="454" type="curve" smooth="yes"/>
      <point x="141" y="454"/>
      <point x="91" y="402"/>
      <point x="91" y="342" type="curve" smooth="yes"/>
      <point x="91" y="292"/>
      <point x="129" y="254"/>
    </contour>
  </outline>
</glyph>
<glyph name="guilsinglright" format="2">
  <advance width="401"/>
  <unicode hex="203A"/>
  <outline>
    <contour>
      <point x="193" y="488" type="line"/>
      <point x="118" y="488" type="line"/>
      <point x="278" y="247" type="line"/>
      <point x="8" y="0" type="line"/>
      <point x="86" y="0" type="line"/>
      <point x="358" y="243" type="line"/>
    </contour>
  </outline>
</glyph>
<glyph name="fraction" format="2">
  <advance width="566"/>
  <unicode hex="2044"/>
  <outline>
    <contour>
      <point x="5" y="0" type="line"/>
      <point x="59" y="0" type="line"/>
      <point x="596" y="700" type="line"/>
      <point x="539" y="700" type="line"/>
    </contour>
  </outline>
</glyph>
<glyph name="uni2070" format="2">
  <advance width="347"/>
  <unicode hex="2070"/>
  <outline>
    <contour>
      <point x="208" y="345" type="curve" smooth="yes"/>
      <point x="302" y="345"/>
      <point x="380" y="446"/>
      <point x="380" y="567" type="curve" smooth="yes"/>
      <point x="380" y="651"/>
      <point x="331" y="705"/>
      <point x="255" y="705" type="curve" smooth="yes"/>
      <point x="161" y="705"/>
      <point x="83" y="604"/>
      <point x="83" y="483" type="curve" smooth="yes"/>
      <point x="83" y="399"/>
      <point x="132" y="345"/>
    </contour>
    <contour>
      <point x="213" y="391" type="curve" smooth="yes"/>
      <point x="163" y="391"/>
      <point x="132" y="426"/>
      <point x="132" y="485" type="curve" smooth="yes"/>
      <point x="132" y="579"/>
      <point x="186" y="660"/>
      <point x="249" y="660" type="curve" smooth="yes"/>
      <point x="300" y="660"/>
      <point x="331" y="624"/>
      <point x="331" y="566" type="curve" smooth="yes"/>
      <point x="331" y="471"/>
      <point x="277" y="391"/>
    </contour>
  </outline>
</glyph>
<glyph name="uni2076" format="2">
  <advance width="322"/>
  <unicode hex="2076"/>
  <outline>
    <contour>
      <point x="206" y="345" type="curve" smooth="yes"/>
      <point x="280" y="345"/>
      <point x="341" y="402"/>
      <point x="341" y="471" type="curve" smooth="yes"/>
      <point x="341" y="525"/>
      <point x="298" y="564"/>
      <point x="239" y="564" type="curve" smooth="yes"/>
      <point x="202" y="564"/>
      <point x="164" y="549"/>
      <point x="136" y="523" type="curve"/>
      <point x="151" y="602"/>
      <point x="204" y="659"/>
      <point x="269" y="659" type="curve" smooth="yes"/>
      <point x="291" y="659"/>
      <point x="316" y="650"/>
      <point x="342" y="635" type="curve"/>
      <point x="369" y="675" type="line"/>
      <point x="339" y="695"/>
      <point x="311" y="703"/>
      <point x="276" y="703" type="curve" smooth="yes"/>
      <point x="170" y="703"/>
      <point x="83" y="603"/>
      <point x="83" y="482" type="curve" smooth="yes"/>
      <point x="83" y="398"/>
      <point x="132" y="345"/>
    </contour>
    <contour>
      <point x="212" y="389" type="curve" smooth="yes"/>
      <point x="160" y="389"/>
      <point x="130" y="429"/>
      <point x="132" y="491" type="curve"/>
      <point x="158" y="514"/>
      <point x="188" y="527"/>
      <point x="219" y="527" type="curve" smooth="yes"/>
      <point x="262" y="527"/>
      <point x="292" y="501"/>
      <point x="292" y="464" type="curve" smooth="yes"/>
      <point x="292" y="422"/>
      <point x="255" y="389"/>
    </contour>
  </outline>
</glyph>
<glyph name="uni2077" format="2">
  <advance width="293"/>
  <unicode hex="2077"/>
  <outline>
    <contour>
      <point x="75" y="350" type="line"/>
      <point x="137" y="350" type="line"/>
      <point x="368" y="661" type="line"/>
      <point x="375" y="700" type="line"/>
      <point x="113" y="700" type="line"/>
      <point x="103" y="655" type="line"/>
      <point x="308" y="655" type="line"/>
    </contour>
  </outline>
</glyph>
<glyph name="uni2079" format="2">
  <advance width="322"/>
  <unicode hex="2079"/>
  <outline>
    <contour>
      <point x="231" y="704" type="curve" smooth="yes"/>
      <point x="157" y="704"/>
      <point x="96" y="647"/>
      <point x="96" y="578" type="curve" smooth="yes"/>
      <point x="96" y="524"/>
      <point x="139" y="485"/>
      <point x="198" y="485" type="curve" smooth="yes"/>
      <point x="235" y="485"/>
      <point x="273" y="500"/>
      <point x="301" y="526" type="curve"/>
      <point x="286" y="447"/>
      <point x="233" y="390"/>
      <point x="168" y="390" type="curve" smooth="yes"/>
      <point x="146" y="390"/>
      <point x="121" y="399"/>
      <point x="95" y="414" type="curve"/>
      <point x="68" y="374" type="line"/>
      <point x="98" y="354"/>
      <point x="126" y="346"/>
      <point x="161" y="346" type="curve" smooth="yes"/>
      <point x="267" y="346"/>
      <point x="354" y="446"/>
      <point x="354" y="567" type="curve" smooth="yes"/>
      <point x="354" y="651"/>
      <point x="305" y="704"/>
    </contour>
    <contour>
      <point x="225" y="660" type="curve" smooth="yes"/>
      <point x="277" y="660"/>
      <point x="307" y="620"/>
      <point x="305" y="558" type="curve"/>
      <point x="279" y="535"/>
      <point x="249" y="522"/>
      <point x="218" y="522" type="curve" smooth="yes"/>
      <point x="175" y="522"/>
      <point x="145" y="548"/>
      <point x="145" y="585" type="curve" smooth="yes"/>
      <point x="145" y="627"/>
      <point x="182" y="660"/>
    </contour>
  </outline>
</glyph>
<glyph name="uni2082" format="2">
  <advance width="287"/>
  <unicode hex="2082"/>
  <outline>
    <contour>
      <point x="-26" y="0" type="line"/>
      <point x="212" y="0" type="line"/>
      <point x="221" y="43" type="line"/>
      <point x="52" y="43" type="line"/>
      <point x="193" y="156" type="line" smooth="yes"/>
      <point x="242" y="194"/>
      <point x="261" y="226"/>
      <point x="261" y="267" type="curve" smooth="yes"/>
      <point x="261" y="319"/>
      <point x="217" y="355"/>
      <point x="155" y="355" type="curve" smooth="yes"/>
      <point x="115" y="355"/>
      <point x="74" y="339"/>
      <point x="31" y="309" type="curve"/>
      <point x="53" y="272" type="line"/>
      <point x="90" y="299"/>
      <point x="117" y="310"/>
      <point x="146" y="310" type="curve" smooth="yes"/>
      <point x="184" y="310"/>
      <point x="210" y="289"/>
      <point x="210" y="258" type="curve" smooth="yes"/>
      <point x="210" y="231"/>
      <point x="194" y="206"/>
      <point x="160" y="180" type="curve" smooth="yes"/>
      <point x="-18" y="37" type="line"/>
    </contour>
  </outline>
</glyph>
<glyph name="uni2084" format="2">
  <advance width="323"/>
  <unicode hex="2084"/>
  <outline>
    <contour>
      <point x="161" y="0" type="line"/>
      <point x="211" y="0" type="line"/>
      <point x="230" y="88" type="line"/>
      <point x="271" y="88" type="line"/>
      <point x="281" y="130" type="line"/>
      <point x="239" y="130" type="line"/>
      <point x="286" y="350" type="line"/>
      <point x="229" y="350" type="line"/>
      <point x="-4" y="129" type="line"/>
      <point x="-12" y="88" type="line"/>
      <point x="180" y="88" type="line"/>
    </contour>
    <contour>
      <point x="53" y="130" type="line"/>
      <point x="223" y="292" type="line"/>
      <point x="189" y="130" type="line"/>
    </contour>
  </outline>
</glyph>
<glyph name="uni2088" format="2">
  <advance width="321"/>
  <unicode hex="2088"/>
  <outline>
    <contour>
      <point x="120" y="-5" type="curve" smooth="yes"/>
      <point x="198" y="-5"/>
      <point x="260" y="43"/>
      <point x="260" y="103" type="curve" smooth="yes"/>
      <point x="260" y="138"/>
      <point x="237" y="166"/>
      <point x="201" y="179" type="curve"/>
      <point x="248" y="191"/>
      <point x="281" y="227"/>
      <point x="281" y="269" type="curve" smooth="yes"/>
      <point x="281" y="319"/>
      <point x="234" y="356"/>
      <point x="171" y="356" type="curve" smooth="yes"/>
      <point x="101" y="356"/>
      <point x="43" y="310"/>
      <point x="43" y="254" type="curve" smooth="yes"/>
      <point x="43" y="223"/>
      <point x="60" y="199"/>
      <point x="89" y="186" type="curve"/>
      <point x="35" y="175"/>
      <point x="-4" y="133"/>
      <point x="-4" y="86" type="curve" smooth="yes"/>
      <point x="-4" y="33"/>
      <point x="47" y="-5"/>
    </contour>
    <contour>
      <point x="157" y="202" type="curve" smooth="yes"/>
      <point x="120" y="202"/>
      <point x="92" y="224"/>
      <point x="92" y="253" type="curve" smooth="yes"/>
      <point x="92" y="287"/>
      <point x="125" y="314"/>
      <point x="167" y="314" type="curve" smooth="yes"/>
      <point x="203" y="314"/>
      <point x="231" y="292"/>
      <point x="231" y="263" type="curve" smooth="yes"/>
      <point x="231" y="230"/>
      <point x="197" y="202"/>
    </contour>
    <contour>
      <point x="124" y="37" type="curve" smooth="yes"/>
      <point x="79" y="37"/>
      <point x="47" y="61"/>
      <point x="47" y="95" type="curve" smooth="yes"/>
      <point x="47" y="132"/>
      <point x="85" y="162"/>
      <point x="133" y="162" type="curve" smooth="yes"/>
      <point x="178" y="162"/>
      <point x="210" y="138"/>
      <point x="210" y="104" type="curve" smooth="yes"/>
      <point x="210" y="67"/>
      <point x="171" y="37"/>
    </contour>
  </outline>
</glyph>
<glyph name="uni2089" format="2">
  <advance width="322"/>
  <unicode hex="2089"/>
  <outline>
    <contour>
      <point x="157" y="354" type="curve" smooth="yes"/>
      <point x="83" y="354"/>
      <point x="22" y="297"/>
      <point x="22" y="228" type="curve" smooth="yes"/>
      <point x="22" y="174"/>
      <point x="65" y="135"/>
      <point x="124" y="135" type="curve" smooth="yes"/>
      <point x="161" y="135"/>
      <point x="199" y="150"/>
      <point x="227" y="176" type="curve"/>
      <point x="212" y="97"/>
      <point x="159" y="40"/>
      <point x="94" y="40" type="curve" smooth="yes"/>
      <point x="72" y="40"/>
      <point x="47" y="49"/>
      <point x="21" y="64" type="curve"/>
      <point x="-6" y="24" type="line"/>
      <point x="24" y="4"/>
      <point x="52" y="-4"/>
      <point x="87" y="-4" type="curve" smooth="yes"/>
      <point x="193" y="-4"/>
      <point x="280" y="96"/>
      <point x="280" y="217" type="curve" smooth="yes"/>
      <point x="280" y="301"/>
      <point x="231" y="354"/>
    </contour>
    <contour>
      <point x="151" y="310" type="curve" smooth="yes"/>
      <point x="203" y="310"/>
      <point x="233" y="270"/>
      <point x="231" y="208" type="curve"/>
      <point x="205" y="185"/>
      <point x="175" y="172"/>
      <point x="144" y="172" type="curve" smooth="yes"/>
      <point x="101" y="172"/>
      <point x="71" y="198"/>
      <point x="71" y="235" type="curve" smooth="yes"/>
      <point x="71" y="277"/>
      <point x="108" y="310"/>
    </contour>
  </outline>
</glyph>
<glyph name="Euro" format="2">
  <advance width="713"/>
  <unicode hex="20AC"/>
  <outline>
    <contour>
      <point x="403" y="-11" type="curve" smooth="yes"/>
      <point x="483" y="-11"/>
      <point x="560" y="26"/>
      <point x="627" y="96" type="curve"/>
      <point x="585" y="138" type="line"/>
      <point x="531" y="82"/>
      <point x="469" y="53"/>
      <point x="408" y="53" type="curve" smooth="yes"/>
      <point x="299" y="53"/>
      <point x="225" y="132"/>
      <point x="215" y="256" type="curve"/>
      <point x="414" y="256" type="line"/>
      <point x="441" y="310" type="line"/>
      <point x="215" y="310" type="line"/>
      <point x="216" y="338"/>
      <point x="220" y="364"/>
      <point x="226" y="390" type="curve"/>
      <point x="486" y="390" type="line"/>
      <point x="515" y="443" type="line"/>
      <point x="242" y="443" type="line"/>
      <point x="287" y="564"/>
      <point x="382" y="649"/>
      <point x="491" y="649" type="curve"/>
      <point x="568" y="649"/>
      <point x="634" y="605"/>
      <point x="668" y="531" type="curve"/>
      <point x="726" y="566" type="line"/>
      <point x="682" y="659"/>
      <point x="602" y="711"/>
      <point x="499" y="711" type="curve" smooth="yes"/>
      <point x="352" y="711"/>
      <point x="224" y="600"/>
      <point x="172" y="443" type="curve"/>
      <point x="84" y="443" type="line"/>
      <point x="72" y="390" type="line"/>
      <point x="157" y="390" type="line"/>
      <point x="152" y="364"/>
      <point x="148" y="338"/>
      <point x="147" y="310" type="curve"/>
      <point x="55" y="310" type="line"/>
      <point x="44" y="256" type="line"/>
      <point x="147" y="256" type="line"/>
      <point x="157" y="94"/>
      <point x="256" y="-11"/>
    </contour>
  </outline>
</glyph>
<glyph name="uni2193" format="2">
  <advance width="505"/>
  <unicode hex="2193"/>
  <outline>
    <contour>
      <point x="255" y="700" type="line"/>
      <point x="187" y="700" type="line"/>
      <point x="187" y="86" type="line"/>
      <point x="21" y="305" type="line"/>
      <point x="-26" y="268" type="line"/>
      <point x="220" y="-50" type="line"/>
      <point x="466" y="268" type="line"/>
      <point x="418" y="306" type="line"/>
      <point x="255" y="91" type="line"/>
    </contour>
  </outline>
</glyph>
<glyph name="a.school" format="2">
  <advance width="570"/>
  <anchor x="327" y="488" name="top"/>
  <anchor x="442" y="0" name="bottom"/>
  <outline>
    <contour>
      <point x="245" y="-7" type="curve" smooth="yes"/>
      <point x="297" y="-7"/>
      <point x="344" y="12"/>
      <point x="381" y="46" type="curve"/>
      <point x="371" y="0" type="line"/>
      <point x="442" y="0" type="line"/>
      <point x="549" y="488" type="line"/>
      <point x="477" y="488" type="line"/>
      <point x="460" y="411" type="line"/>
      <point x="426" y="464"/>
      <point x="371" y="493"/>
      <point x="303" y="493" type="curve" smooth="yes"/>
      <point x="164" y="493"/>
      <point x="51" y="367"/>
      <point x="51" y="214" type="curve" smooth="yes"/>
      <point x="51" y="88"/>
      <point x="133" y="-7"/>
    </contour>
    <contour>
      <point x="271" y="56" type="curve" smooth="yes"/>
      <point x="183" y="56"/>
      <point x="122" y="123"/>
      <point x="122" y="220" type="curve" smooth="yes"/>
      <point x="122" y="337"/>
      <point x="206" y="429"/>
      <point x="312" y="429" type="curve" smooth="yes"/>
      <point x="369" y="429"/>
      <point x="422" y="398"/>
      <point x="448" y="353" type="curve"/>
      <point x="394" y="105" type="line"/>
      <point x="359" y="73"/>
      <point x="316" y="56"/>
    </contour>
  </outline>
</glyph>
<glyph name="caronSlovak" format="2">
  <advance width="600"/>
  <outline>
    <contour>
      <point x="318" y="527" type="line"/>
      <point x="376" y="527" type="line"/>
      <point x="442" y="737" type="line"/>
      <point x="367" y="722" type="line"/>
    </contour>
  </outline>
</glyph>
<glyph name="commaaccent" format="2">
  <advance width="600"/>
  <outline>
    <contour>
      <point x="117" y="-274" type="line"/>
      <point x="170" y="-274" type="line"/>
      <point x="281" y="-87" type="line"/>
      <point x="204" y="-87" type="line"/>
    </contour>
  </outline>
</glyph>
<glyph name="cordinal" format="2">
  <advance width="396"/>
  <outline>
    <contour>
      <point x="261" y="317" type="curve" smooth="yes"/>
      <point x="311" y="317"/>
      <point x="360" y="335"/>
      <point x="402" y="369" type="curve"/>
      <point x="372" y="412" type="line"/>
      <point x="338" y="386"/>
      <point x="304" y="372"/>
      <point x="267" y="372" type="curve" smooth="yes"/>
      <point x="201" y="372"/>
      <point x="150" y="425"/>
      <point x="150" y="493" type="curve" smooth="yes"/>
      <point x="150" y="579"/>
      <point x="218" y="652"/>
      <point x="297" y="652" type="curve" smooth="yes"/>
      <point x="338" y="652"/>
      <point x="375" y="633"/>
      <point x="402" y="596" type="curve"/>
      <point x="445" y="636" type="line"/>
      <point x="414" y="680"/>
      <point x="357" y="709"/>
      <point x="299" y="709" type="curve" smooth="yes"/>
      <point x="185" y="709"/>
      <point x="90" y="609"/>
      <point x="90" y="490" type="curve" smooth="yes"/>
      <point x="90" y="390"/>
      <point x="163" y="317"/>
    </contour>
  </outline>
</glyph>
<glyph name="g.alt" format="2">
  <advance width="526"/>
  <note>
Version created Sun Jan 13 16:53:00 2019
</note>
  <anchor x="294" y="488" name="top"/>
  <outline>
    <contour>
      <point x="210" y="-219" type="curve" smooth="yes"/>
      <point x="355" y="-219"/>
      <point x="449" y="-158"/>
      <point x="449" y="-65" type="curve" smooth="yes"/>
      <point x="449" y="-14"/>
      <point x="413" y="18"/>
      <point x="342" y="27" type="curve" smooth="yes"/>
      <point x="161" y="51" type="line" smooth="yes"/>
      <point x="127" y="56"/>
      <point x="110" y="69"/>
      <point x="110" y="92" type="curve" smooth="yes"/>
      <point x="110" y="119"/>
      <point x="136" y="141"/>
      <point x="175" y="149" type="curve"/>
      <point x="199" y="139"/>
      <point x="227" y="133"/>
      <point x="256" y="133" type="curve" smooth="yes"/>
      <point x="372" y="133"/>
      <point x="473" y="226"/>
      <point x="473" y="331" type="curve" smooth="yes"/>
      <point x="473" y="361"/>
      <point x="465" y="389"/>
      <point x="451" y="412" type="curve"/>
      <point x="462" y="440"/>
      <point x="489" y="458"/>
      <point x="521" y="458" type="curve" smooth="yes"/>
      <point x="538" y="458"/>
      <point x="554" y="455"/>
      <point x="567" y="451" type="curve"/>
      <point x="581" y="520" type="line"/>
      <point x="570" y="523"/>
      <point x="556" y="525"/>
      <point x="545" y="525" type="curve" smooth="yes"/>
      <point x="491" y="525"/>
      <point x="451" y="492"/>
      <point x="435" y="434" type="curve"/>
      <point x="402" y="472"/>
      <point x="351" y="495"/>
      <point x="292" y="495" type="curve" smooth="yes"/>
      <point x="176" y="495"/>
      <point x="75" y="402"/>
      <point x="75" y="297" type="curve" smooth="yes"/>
      <point x="75" y="242"/>
      <point x="102" y="195"/>
      <point x="145" y="166" type="curve"/>
      <point x="86" y="153"/>
      <point x="43" y="113"/>
      <point x="43" y="67" type="curve" smooth="yes"/>
      <point x="43" y="38"/>
      <point x="59" y="15"/>
      <point x="88" y="0" type="curve"/>
      <point x="11" y="-19"/>
      <point x="-30" y="-54"/>
      <point x="-30" y="-101" type="curve" smooth="yes"/>
      <point x="-30" y="-173"/>
      <point x="64" y="-219"/>
    </contour>
    <contour>
      <point x="261" y="189" type="curve" smooth="yes"/>
      <point x="194" y="189"/>
      <point x="145" y="236"/>
      <point x="145" y="300" type="curve" smooth="yes"/>
      <point x="145" y="375"/>
      <point x="211" y="439"/>
      <point x="288" y="439" type="curve" smooth="yes"/>
      <point x="354" y="439"/>
      <point x="403" y="392"/>
      <point x="403" y="328" type="curve" smooth="yes"/>
      <point x="403" y="253"/>
      <point x="337" y="189"/>
    </contour>
    <contour>
      <point x="214" y="-166" type="curve" smooth="yes"/>
      <point x="107" y="-166"/>
      <point x="40" y="-135"/>
      <point x="40" y="-87" type="curve" smooth="yes"/>
      <point x="40" y="-52"/>
      <point x="72" y="-25"/>
      <point x="124" y="-12" type="curve"/>
      <point x="131" y="-14"/>
      <point x="138" y="-15"/>
      <point x="145" y="-16" type="curve" smooth="yes"/>
      <point x="322" y="-37" type="line" smooth="yes"/>
      <point x="356" y="-41"/>
      <point x="374" y="-59"/>
      <point x="374" y="-84" type="curve" smooth="yes"/>
      <point x="374" y="-132"/>
      <point x="309" y="-166"/>
    </contour>
  </outline>
</glyph>
<glyph name="gcommaaccent.alt" format="2">
  <advance width="526"/>
  <outline>
    <contour>
      <point x="458" y="797" type="line"/>
      <point x="405" y="797" type="line"/>
      <point x="294" y="610" type="line"/>
      <point x="371" y="610" type="line"/>
    </contour>
    <component base="g.alt"/>
  </outline>
</glyph>
<glyph name="gravecomb" format="2">
  <anchor x="352" y="488" name="_top"/>
  <outline>
    <contour>
      <point x="344" y="584" type="line"/>
      <point x="411" y="584" type="line"/>
      <point x="302" y="706" type="line"/>
      <point x="202" y="706" type="line"/>
    </contour>
  </outline>
</glyph>
<glyph name="questiondown.cap" format="2">
  <advance width="501"/>
  <outline>
    <contour>
      <point x="353" y="704" type="curve" smooth="yes"/>
      <point x="323" y="704"/>
      <point x="296" y="676"/>
      <point x="296" y="645" type="curve" smooth="yes"/>
      <point x="296" y="619"/>
      <point x="315" y="598"/>
      <point x="341" y="598" type="curve" smooth="yes"/>
      <point x="372" y="598"/>
      <point x="399" y="625"/>
      <point x="399" y="656" type="curve" smooth="yes"/>
      <point x="399" y="683"/>
      <point x="380" y="704"/>
    </contour>
    <contour>
      <point x="348" y="489" type="curve"/>
      <point x="287" y="489" type="line"/>
      <point x="277" y="428"/>
      <point x="253" y="391"/>
      <point x="199" y="360" type="curve" smooth="yes"/>
      <point x="140" y="325" type="line" smooth="yes"/>
      <point x="52" y="272"/>
      <point x="14" y="216"/>
      <point x="14" y="142" type="curve" smooth="yes"/>
      <point x="14" y="51"/>
      <point x="89" y="-11"/>
      <point x="198" y="-11" type="curve" smooth="yes"/>
      <point x="276" y="-11"/>
      <point x="354" y="26"/>
      <point x="418" y="93" type="curve"/>
      <point x="373" y="134" type="line"/>
      <point x="324" y="84"/>
      <point x="266" y="55"/>
      <point x="208" y="55" type="curve" smooth="yes"/>
      <point x="135" y="55"/>
      <point x="85" y="95"/>
      <point x="85" y="151" type="curve"/>
      <point x="85" y="197"/>
      <point x="116" y="242"/>
      <point x="170" y="275" type="curve" smooth="yes"/>
      <point x="232" y="311" type="line" smooth="yes"/>
      <point x="301" y="351"/>
      <point x="334" y="401"/>
    </contour>
  </outline>
</glyph>
<glyph name="reversequotedblleft" format="2">
  <advance width="412"/>
  <outline>
    <contour>
      <point x="199" y="519" type="line"/>
      <point x="255" y="519" type="line"/>
      <point x="211" y="750" type="line"/>
      <point x="133" y="750" type="line"/>
    </contour>
    <contour>
      <point x="360" y="519" type="line"/>
      <point x="416" y="519" type="line"/>
      <point x="372" y="750" type="line"/>
      <point x="294" y="750" type="line"/>
    </contour>
  </outline>
</glyph>
<glyph name="uni0302" format="2">
  <anchor x="352" y="488" name="_top"/>
  <outline>
    <contour>
      <point x="219" y="579" type="line"/>
      <point x="280" y="579" type="line"/>
      <point x="391" y="663" type="line"/>
      <point x="464" y="579" type="line"/>
      <point x="520" y="579" type="line"/>
      <point x="433" y="706" type="line"/>
      <point x="356" y="706" type="line"/>
    </contour>
  </outline>
</glyph>
